<?xml version="1.0" encoding="UTF-8"?>
<svg width="32px" height="44px" viewBox="0 0 32 44" version="1.1" xmlns="http://www.w3.org/2000/svg" xmlns:xlink="http://www.w3.org/1999/xlink">
    <title>icon/64/Auto find adress</title>
    <g id="页面-1" stroke="none" stroke-width="1" fill="none" fill-rule="evenodd">
        <g id="安装参数-连接主外机" transform="translate(-648.000000, -65.000000)" stroke-width="3">
            <g id="编组" transform="translate(648.000000, 65.000000)">
                <path d="M5.50667039,33.7040358 C3.32442665,34.5528959 2,35.6685423 2,36.8905451 C2,39.5489626 8.2680135,41.7040358 16,41.7040358 C23.7319865,41.7040358 30,39.5489626 30,36.8905451 C30,35.6728288 28.6848485,34.560724 26.5162622,33.7129783" id="路径" stroke="#595959" stroke-linecap="round"></path>
                <path d="M16,1.5 C20.0006643,1.5 23.621156,3.15697262 26.2424198,5.83157609 C28.8745099,8.51722625 30.5,12.2280996 30.5,16.3255814 C30.5,20.6469063 28.7169434,24.3694677 26.4049746,27.3568808 C22.5577362,32.3280944 17.1553529,35.5 16,35.5 C14.8446471,35.5 9.44226381,32.3280944 5.59502541,27.3568808 C3.28305663,24.3694677 1.5,20.6469063 1.5,16.3255814 C1.5,12.2280996 3.12549006,8.51722625 5.75758024,5.83157609 C8.37884405,3.15697262 11.9993357,1.5 16,1.5 Z" id="椭圆形" stroke="#595959"></path>
                <path d="M16,22 C19.3137085,22 22,19.3137085 22,16 C22,12.6862915 19.3137085,10 16,10 C12.6862915,10 10,12.6862915 10,16 C10.0103259,19.3094219 12.6905781,21.9896741 16,22 L16,22 Z" id="路径" stroke="#1C6CEC" fill-rule="nonzero"></path>
            </g>
        </g>
    </g>
</svg>