<?xml version="1.0" encoding="UTF-8"?>
<svg width="228px" height="285px" viewBox="0 0 228 285" version="1.1" xmlns="http://www.w3.org/2000/svg" xmlns:xlink="http://www.w3.org/1999/xlink">
    <title>1.Base基础组件 / 13.Result 结果页/勾透明/成功 2@3x</title>
    <defs>
        <path d="M138,39 C192.67619,39 237,83.3238098 237,138 C237,192.67619 192.67619,237 138,237 C83.3238098,237 39,192.67619 39,138 C39,83.3238098 83.3238098,39 138,39 Z M174.118626,101.845556 C171.080632,98.833176 166.241726,98.7237937 163.072868,101.509233 L162.68571,101.872489 L138,126.582 L113.31429,101.872489 L112.927132,101.509233 C109.758274,98.7237937 104.919368,98.833176 101.881374,101.845556 C98.7167963,104.983452 98.7046929,110.083045 101.85434,113.235816 L126.594,138 L101.85434,162.764184 C98.7046929,165.916955 98.7167963,171.016548 101.881374,174.154444 C104.919368,177.166824 109.758274,177.276206 112.927132,174.490767 L113.31429,174.127511 L138,149.417 L162.68571,174.127511 L163.072868,174.490767 C166.241726,177.276206 171.080632,177.166824 174.118626,174.154444 C177.283204,171.016548 177.295307,165.916955 174.14566,162.764184 L149.405,138 L174.14566,113.235816 C177.295307,110.083045 177.283204,104.983452 174.118626,101.845556 Z" id="path-1"></path>
        <linearGradient x1="31.6931576%" y1="24.55007%" x2="73.8773586%" y2="75.1438095%" id="linearGradient-3">
            <stop stop-color="#E6E6E6" offset="0%"></stop>
            <stop stop-color="#CCCCCC" offset="100%"></stop>
        </linearGradient>
        <linearGradient x1="31.6931576%" y1="26.9720667%" x2="73.8773586%" y2="72.7509454%" id="linearGradient-4">
            <stop stop-color="#E6E6E6" offset="0%"></stop>
            <stop stop-color="#CCCCCC" offset="100%"></stop>
        </linearGradient>
    </defs>
    <g id="页面-1" stroke="none" stroke-width="1" fill="none" fill-rule="evenodd">
        <g id="连接失败" transform="translate(-261.000000, -282.000000)">
            <g id="1.Base基础组件-/-13.Result-结果页/勾透明/成功" transform="translate(222.000000, 273.000000)">
                <g id="1.Base基础组件-/-3.icon/警示">
                    <rect id="矩形" x="0" y="0" width="276" height="276"></rect>
                    <mask id="mask-2" fill="white">
                        <use xlink:href="#path-1"></use>
                    </mask>
                    <use id="形状结合" fill="#FFFFFF" fill-rule="nonzero" xlink:href="#path-1"></use>
                    <rect id="矩形" fill="url(#linearGradient-3)" mask="url(#mask-2)" x="0" y="0" width="276" height="276"></rect>
                </g>
                <ellipse id="椭圆形" fill="#F5F0EF" fill-rule="nonzero" cx="138" cy="285" rx="60" ry="9"></ellipse>
                <path d="M199.32565,9.038751 C202.594606,9.26733869 205.091679,12.0440804 205.09872,15.345115 L205.082601,15.8200394 L203.750981,34.863093 C203.505837,38.3688224 200.530904,41.0166465 197.106283,40.7771737 C193.837327,40.548586 191.340253,37.7718443 191.333213,34.4708097 L191.349332,33.9958852 L192.680952,14.9528316 C192.926096,11.4471023 195.901029,8.79927818 199.32565,9.038751 Z M236.765811,28.4173077 C239.28533,26.0134465 243.220021,26.1411529 245.554188,28.702548 C247.771648,31.1358733 247.746914,34.8902244 245.578724,37.3205867 L245.21858,37.6929398 L231.532602,50.750667 C229.013083,53.1545282 225.078392,53.0268218 222.744224,50.4654267 C220.526765,48.0321014 220.551498,44.2777504 222.719688,41.8473881 L223.079832,41.475035 L236.765811,28.4173077 Z M260.02586,65.9939763 C263.433255,65.5656921 266.534654,68.0461588 266.95303,71.5342539 C267.352388,74.8637991 265.162736,77.9079314 261.999301,78.5502877 L261.540932,78.6254858 L243.032031,80.9519173 C239.624637,81.3802015 236.523238,78.8997347 236.104862,75.4116397 C235.705504,72.0820945 237.895156,69.0379622 241.058591,68.3956059 L241.51696,68.3204078 L260.02586,65.9939763 Z" id="形状结合" fill="url(#linearGradient-4)"></path>
            </g>
        </g>
    </g>
</svg>