<?xml version="1.0" encoding="UTF-8"?>
<svg width="228px" height="285px" viewBox="0 0 228 285" version="1.1" xmlns="http://www.w3.org/2000/svg" xmlns:xlink="http://www.w3.org/1999/xlink">
    <title>1.Base基础组件 / 13.Result 结果页/勾透明/成功@3x</title>
    <defs>
        <linearGradient x1="31.7625967%" y1="23.1803795%" x2="65.2197983%" y2="72.1391049%" id="linearGradient-1">
            <stop stop-color="#82E860" offset="0%"></stop>
            <stop stop-color="#5DDD4D" offset="100%"></stop>
        </linearGradient>
        <path d="M138,39 C192.67619,39 237,83.3238098 237,138 C237,192.67619 192.67619,237 138,237 C83.3238098,237 39,192.67619 39,138 C39,83.3238098 83.3238098,39 138,39 Z M191.382579,103.940921 C188.156678,100.723176 182.933071,100.729787 179.715326,103.955687 L126.51325,157.29125 L100.538186,132.157061 L100.136161,131.792472 C96.8492419,129.000659 91.9141478,129.205602 88.872503,132.349025 C85.704123,135.623424 85.7900681,140.846328 89.0644667,144.014708 L120.879741,174.799865 L121.277403,175.160732 C124.5283,177.925584 129.401698,177.760942 132.457609,174.697285 L191.397345,115.608174 L191.767998,115.211733 C194.60941,111.967594 194.479443,107.029957 191.382579,103.940921 Z" id="path-2"></path>
        <linearGradient x1="31.7625967%" y1="20.3595865%" x2="65.2197983%" y2="74.4676179%" id="linearGradient-4">
            <stop stop-color="#82E860" offset="0%"></stop>
            <stop stop-color="#5DDD4D" offset="100%"></stop>
        </linearGradient>
    </defs>
    <g id="页面-1" stroke="none" stroke-width="1" fill="none" fill-rule="evenodd">
        <g id="设备解锁-连接成功" transform="translate(-261.000000, -282.000000)">
            <g id="1.Base基础组件-/-3.icon/警示" transform="translate(222.000000, 273.000000)">
                <rect id="矩形" x="0" y="0" width="276" height="276"></rect>
                <path d="M199.32565,9.038751 C202.594606,9.26733869 205.091679,12.0440804 205.09872,15.345115 L205.082601,15.8200394 L203.750981,34.863093 C203.505837,38.3688224 200.530904,41.0166465 197.106283,40.7771737 C193.837327,40.548586 191.340253,37.7718443 191.333213,34.4708097 L191.349332,33.9958852 L192.680952,14.9528316 C192.926096,11.4471023 195.901029,8.79927818 199.32565,9.038751 Z M236.765811,28.4173077 C239.28533,26.0134465 243.220021,26.1411529 245.554188,28.702548 C247.771648,31.1358733 247.746914,34.8902244 245.578724,37.3205867 L245.21858,37.6929398 L231.532602,50.750667 C229.013083,53.1545282 225.078392,53.0268218 222.744224,50.4654267 C220.526765,48.0321014 220.551498,44.2777504 222.719688,41.8473881 L223.079832,41.475035 L236.765811,28.4173077 Z M260.02586,65.9939763 C263.433255,65.5656921 266.534654,68.0461588 266.95303,71.5342539 C267.352388,74.8637991 265.162736,77.9079314 261.999301,78.5502877 L261.540932,78.6254858 L243.032031,80.9519173 C239.624637,81.3802015 236.523238,78.8997347 236.104862,75.4116397 C235.705504,72.0820945 237.895156,69.0379622 241.058591,68.3956059 L241.51696,68.3204078 L260.02586,65.9939763 Z" id="形状结合" fill="url(#linearGradient-1)"></path>
                <ellipse id="椭圆形" fill="#F5F0EF" fill-rule="nonzero" cx="138" cy="285" rx="60" ry="9"></ellipse>
                <mask id="mask-3" fill="white">
                    <use xlink:href="#path-2"></use>
                </mask>
                <use id="形状结合" fill="#FFFFFF" fill-rule="nonzero" xlink:href="#path-2"></use>
                <rect id="矩形" fill="url(#linearGradient-4)" mask="url(#mask-3)" x="0" y="0" width="276" height="276"></rect>
            </g>
        </g>
    </g>
</svg>