<?xml version="1.0" encoding="UTF-8"?>
<svg width="34px" height="34px" viewBox="0 0 34 34" version="1.1" xmlns="http://www.w3.org/2000/svg" xmlns:xlink="http://www.w3.org/1999/xlink">
    <title>清除</title>
    <defs>
        <path d="M20,3.33333333 C10.7952542,3.33333333 3.33333333,10.7952542 3.33333333,20 C3.33333333,29.2047458 10.7952542,36.6666667 20,36.6666667 C29.2047458,36.6666667 36.6666667,29.2047458 36.6666667,20 C36.6666667,10.7952542 29.2047458,3.33333333 20,3.33333333 Z M26.1566344,13.8433656 C26.8366774,14.5234087 26.8366774,15.6259763 26.1566344,16.3060194 L22.4626538,20 L26.1566344,23.6939806 C26.8366774,24.3740237 26.8366774,25.4765913 26.1566344,26.1566344 C25.4765913,26.8366774 24.3740237,26.8366774 23.6939806,26.1566344 L19.9987687,22.4614224 L16.3060194,26.1566344 C15.6259763,26.8366774 14.5234087,26.8366774 13.8433656,26.1566344 C13.1633226,25.4765913 13.1633226,24.3740237 13.8433656,23.6939806 L17.5361149,19.9987687 L13.8433656,16.3060194 C13.1633226,15.6259763 13.1633226,14.5234087 13.8433656,13.8433656 C14.5234087,13.1633226 15.6259763,13.1633226 16.3060194,13.8433656 L20,17.5373462 L23.6939806,13.8433656 C24.3740237,13.1633226 25.4765913,13.1633226 26.1566344,13.8433656 Z" id="path-1"></path>
    </defs>
    <g id="页面-1" stroke="none" stroke-width="1" fill="none" fill-rule="evenodd">
        <g id="室内机主板-非法SN提示" transform="translate(-619.000000, -369.000000)">
            <g id="编组-11" transform="translate(32.000000, 342.000000)">
                <g id="清除" transform="translate(584.000000, 24.000000)">
                    <rect id="矩形" x="0" y="0" width="40" height="40"></rect>
                    <mask id="mask-2" fill="white">
                        <use xlink:href="#path-1"></use>
                    </mask>
                    <use id="形状结合" fill="#FFFFFF" fill-rule="nonzero" xlink:href="#path-1"></use>
                    <rect id="矩形" fill="#B3B3B3" mask="url(#mask-2)" x="0" y="0" width="40" height="40"></rect>
                </g>
            </g>
        </g>
    </g>
</svg>