<?xml version="1.0" encoding="UTF-8"?>
<svg width="48px" height="48px" viewBox="0 0 48 48" version="1.1" xmlns="http://www.w3.org/2000/svg" xmlns:xlink="http://www.w3.org/1999/xlink">
    <title>椭圆形@3x</title>
    <defs>
        <path d="M14.8542236,2.75793302 L15.0012522,2.74990354 L15.0012522,2.74990354 C15.345178,2.74990354 15.657678,2.8819811 15.8838835,3.09536567 L24.4765477,9.23273607 L24.5984782,9.33179785 C25.0551869,9.7528077 25.1375618,10.4578977 24.7671668,10.9764507 C24.3967719,11.4950036 23.7030787,11.6457592 23.1567043,11.3502812 L23.0234523,11.2670697 L16.2499029,6.4275 L16.25,19.0708479 C16.25,19.7220756 15.6903559,20.25 15,20.25 C14.3589552,20.25 13.830616,19.7947999 13.7584097,19.2083619 L13.75,19.0708479 L13.7499029,6.4275 L6.97654774,11.2670697 L6.84329566,11.3502812 C6.29692135,11.6457592 5.60322815,11.4950036 5.23283316,10.9764507 C4.86243817,10.4578977 4.94481313,9.7528077 5.40152185,9.33179785 L5.52345226,9.23273607 L14.1161165,3.09536567 C14.310007,2.91246461 14.5672974,2.78937018 14.8542236,2.75793302 Z M7.5,24.25 L22.5,24.25 C23.1903559,24.25 23.75,24.8096441 23.75,25.5 C23.75,26.1903559 23.1903559,26.75 22.5,26.75 L7.5,26.75 C6.80964406,26.75 6.25,26.1903559 6.25,25.5 C6.25,24.8096441 6.80964406,24.25 7.5,24.25 Z" id="path-1"></path>
    </defs>
    <g id="页面-1" stroke="none" stroke-width="1" fill="none" fill-rule="evenodd">
        <g id="设备解锁-解锁记录" transform="translate(-556.000000, -1056.000000)">
            <g id="基本信息" transform="translate(32.000000, 412.000000)">
                <g id="编组备份" transform="translate(24.000000, 383.000000)">
                    <g id="椭圆形" transform="translate(500.000000, 261.000000)">
                        <circle fill="#FFFFFF" cx="24" cy="24" r="24"></circle>
                        <circle stroke="#979797" stroke-width="0.5" fill="#FFFFFF" cx="24" cy="24" r="23.75"></circle>
                        <g id="1.Base基础组件-/-3.icon/下载" transform="translate(9.000000, 9.000000)">
                            <rect id="矩形" x="0" y="0" width="30" height="30"></rect>
                            <mask id="mask-2" fill="white">
                                <use xlink:href="#path-1"></use>
                            </mask>
                            <use id="形状" fill="#FFFFFF" fill-rule="nonzero" xlink:href="#path-1"></use>
                            <rect id="矩形" fill="#151726" mask="url(#mask-2)" x="0" y="0" width="30" height="30"></rect>
                        </g>
                    </g>
                </g>
            </g>
        </g>
    </g>
</svg>