<?xml version="1.0" encoding="UTF-8"?>
<svg width="50px" height="32px" viewBox="0 0 50 32" version="1.1" xmlns="http://www.w3.org/2000/svg" xmlns:xlink="http://www.w3.org/1999/xlink">
    <title>编组 42@3x</title>
    <g id="页面-1" stroke="none" stroke-width="1" fill="none" fill-rule="evenodd">
        <g id="故障智能解析-连接指引备份-9" transform="translate(-234.000000, -526.000000)">
            <g id="编组-8" transform="translate(104.500000, 454.000000)">
                <g id="编组备份" transform="translate(130.500000, 74.000000)">
                    <path d="M1.5,11 L28.5,11 C28.7761424,11 29,11.2238576 29,11.5 L29,26.5 C29,26.7761424 28.7761424,27 28.5,27 L1.5,27 C1.22385763,27 1,26.7761424 1,26.5 L1,11.5 C1,11.2238576 1.22385763,11 1.5,11 Z" id="矩形" stroke="#333333" stroke-width="4" fill="#FFFFFF" stroke-dasharray="0"></path>
                    <path id="直线-2" d="M47,0 L38.5128966,13.1517709 L35.458,7.987 L1.0090411,28.3607422 L0.148298879,28.8697833 L-0.869783312,27.1482989 L-0.00904109566,26.6392578 L34.44,6.266 L31.3863213,1.10137983 L47,0 Z" fill="#333333" fill-rule="nonzero"></path>
                </g>
            </g>
        </g>
    </g>
</svg>