<?xml version="1.0" encoding="UTF-8"?>
<svg width="140px" height="140px" viewBox="0 0 140 140" version="1.1" xmlns="http://www.w3.org/2000/svg" xmlns:xlink="http://www.w3.org/1999/xlink">
    <title>编组 18@3x</title>
    <g id="页面-1" stroke="none" stroke-width="1" fill="none" fill-rule="evenodd">
        <g id="故障智能解析-连接指引备份-9" transform="translate(-408.000000, -526.000000)">
            <g id="编组-9" transform="translate(32.000000, 496.000000)">
                <g id="编组-17" transform="translate(346.000000, 0.000000)">
                    <g id="编组-18" transform="translate(30.000000, 30.000000)">
                        <rect id="矩形" fill="#202020" x="20" y="20" width="100" height="100" rx="50"></rect>
                        <g id="编组-16">
                            <rect id="矩形" x="0" y="0" width="140" height="140" rx="70"></rect>
                            <g id="编组-15" transform="translate(28.000000, 28.000000)">
                                <path d="M36.619784,0.3227565 C36.619784,0.3227565 36.619784,0.3227565 36.619784,0.3227565 C17.668256,2.68238921 2.65102599,17.7156968 0.315939316,36.6748339 C0.315939316,36.6748339 0.315939316,36.6748339 0.315939316,36.6748339 C0.00507399331,39.1988252 1.79916702,41.4969305 4.32315826,41.8077958 C4.50990034,41.8307957 4.69787659,41.8423281 4.88602972,41.8423234 C5.00594956,41.8423234 5.12070312,41.8423234 5.23029042,41.8423234 C13.3662977,41.8423234 25.5703087,41.8423234 41.8423234,41.8423234 C41.8423234,25.5703087 41.8423234,13.3662977 41.8423234,5.23029042 C41.8423234,5.13581571 41.8423234,5.03750139 41.8423234,4.93534745 C41.842299,2.36821379 39.761226,0.287140771 37.1940924,0.287140771 C37.0021044,0.287140771 36.8103009,0.299035465 36.619784,0.3227565 Z" id="椭圆形" fill="#FFFFFF"></path>
                                <path d="M86.119784,13.5862415 C86.119784,13.5862415 86.119784,13.5862415 86.119784,13.5862415 C67.168256,15.9458742 52.151026,30.9791818 49.8159393,49.9383189 C49.8159393,49.9383189 49.8159393,49.9383189 49.8159393,49.9383189 C49.505074,52.4623102 51.299167,54.7604155 53.8231583,55.0712808 C54.0099003,55.0942807 54.1978766,55.1058131 54.3860297,55.1058084 C54.5059496,55.1058084 54.6207031,55.1058084 54.7302904,55.1058084 C62.8662977,55.1058084 75.0703087,55.1058084 91.3423234,55.1058084 C91.3423234,38.8337937 91.3423234,26.6297828 91.3423234,18.4937754 C91.3423234,18.3993007 91.3423234,18.3009864 91.3423234,18.1988325 C91.342299,15.6316988 89.261226,13.5506258 86.6940924,13.5506258 C86.5021044,13.5506258 86.3103009,13.5625205 86.119784,13.5862415 Z" id="椭圆形" fill="#FFFFFF" transform="translate(70.421162, 34.184647) rotate(-240.000000) translate(-70.421162, -34.184647) "></path>
                                <path d="M49.883269,49.8227565 C49.883269,49.8227565 49.883269,49.8227565 49.883269,49.8227565 C30.931741,52.1823892 15.914511,67.2156968 13.5794243,86.1748339 C13.5794243,86.1748339 13.5794243,86.1748339 13.5794243,86.1748339 C13.268559,88.6988252 15.062652,90.9969305 17.5866433,91.3077958 C17.7733854,91.3307957 17.9613616,91.3423281 18.1495147,91.3423234 C18.2694346,91.3423234 18.3841881,91.3423234 18.4937754,91.3423234 C26.6297828,91.3423234 38.8337937,91.3423234 55.1058084,91.3423234 C55.1058084,75.0703087 55.1058084,62.8662977 55.1058084,54.7302904 C55.1058084,54.6358157 55.1058084,54.5375014 55.1058084,54.4353474 C55.1057841,51.8682138 53.024711,49.7871408 50.4575774,49.7871408 C50.2655894,49.7871408 50.0737859,49.7990355 49.883269,49.8227565 Z" id="椭圆形备份-8" fill="#FFFFFF" transform="translate(34.184647, 70.421162) rotate(-120.000000) translate(-34.184647, -70.421162) "></path>
                                <rect id="矩形" fill="#202020" x="27.8948822" y="27.8948822" width="27.8948822" height="27.8948822" rx="13.9474411"></rect>
                                <rect id="矩形" fill="#FFFFFF" x="34.8686028" y="34.8686028" width="13.9474411" height="13.9474411" rx="6.97372056"></rect>
                            </g>
                        </g>
                    </g>
                </g>
            </g>
        </g>
    </g>
</svg>