<?xml version="1.0" encoding="UTF-8"?>
<svg width="32px" height="32px" viewBox="0 0 32 32" version="1.1" xmlns="http://www.w3.org/2000/svg" xmlns:xlink="http://www.w3.org/1999/xlink">
    <title>固定</title>
    <g id="云端管理" stroke="none" stroke-width="1" fill="none" fill-rule="evenodd">
        <g id="云链接-卡片进去详情-无试运行报告" transform="translate(-233, -648)" fill="#00BD34" fill-rule="nonzero">
            <g id="编组-7" transform="translate(32, 87)">
                <g id="室内机地址-+-编组-11-+-编组-10-+-编组-9-+-未固定备份-+-开关机状态蒙版" transform="translate(0, 553)">
                    <g id="编组-11" transform="translate(169, 8)">
                        <g id="固定" transform="translate(32, 0)">
                            <path d="M19.7448736,2.00020224 C20.4707042,2 21.1528515,2.28252587 21.6661305,2.79580481 C22.1792072,3.3088815 22.4619353,3.99123103 22.4615308,4.7168594 L22.4615308,15.0346153 L24.548218,15.8900802 C25.5725512,16.3101276 26.234677,17.2970469 26.234677,18.4040953 L26.234677,19.9471679 C26.2348792,20.6729985 25.9523534,21.3551458 25.4390744,21.8684248 C24.9257955,22.3817037 24.2432437,22.6642296 23.5176154,22.6642296 L17.1184144,22.6642296 L17.1186167,28.9135725 C17.1186167,29.189829 17.0065771,29.4401991 16.8253722,29.6214039 C16.6441673,29.8026088 16.3937972,29.9146484 16.1175407,29.9146484 C15.5646232,29.9146484 15.1164648,29.46649 15.1164648,28.9135725 L15.1162626,22.6642296 L8.71706164,22.6642296 C7.21888578,22.6642296 6,21.4453438 6,19.9471679 L6,18.4040953 C6,17.2970469 6.66212578,16.3101276 7.68645903,15.8900802 L9.77314619,15.0346153 L9.77294395,4.71706164 C9.77294395,3.21888578 10.9918297,2 12.4900056,2 Z M19.7444692,4.00154515 L12.4898034,4.00154515 C12.0954401,4.00154515 11.7746913,4.32229392 11.7746913,4.71665717 L11.7746913,15.3219949 C11.7748936,15.9628857 11.3916534,16.5342068 10.7984906,16.7774986 L8.44565883,17.7421718 C8.35566312,17.7791813 8.27618376,17.8327742 8.21045655,17.8985014 C8.07920437,18.0297536 8.00194962,18.209745 8.00194962,18.4038931 L8.00194962,19.9469657 C8.00194962,20.3413289 8.3226984,20.6620777 8.71706164,20.6620777 L23.5174131,20.66228 C23.7083254,20.66228 23.8879123,20.5878565 24.023007,20.4527618 C24.1581017,20.3176671 24.2325251,20.1380802 24.2325251,19.9471679 L24.2325251,18.4040953 C24.2325251,18.1128732 24.0581964,17.8532002 23.7886137,17.7425763 L21.4357819,16.7779031 C20.8428214,16.5348136 20.4595812,15.9634924 20.4595812,15.3223994 L20.4595812,4.71706164 C20.4597834,4.32290063 20.1390346,4.00215186 19.7444692,4.00154515 Z" id="形状结合"></path>
                        </g>
                    </g>
                </g>
            </g>
        </g>
    </g>
</svg>