<?xml version="1.0" encoding="UTF-8"?>
<svg width="64px" height="61px" viewBox="0 0 64 61" version="1.1" xmlns="http://www.w3.org/2000/svg" xmlns:xlink="http://www.w3.org/1999/xlink">
    <title>auto</title>
    <defs>
        <polygon id="path-1" points="-1.25816394e-15 0 60.6505651 0 60.6505651 31.6207094 -1.25816394e-15 31.6207094"></polygon>
    </defs>
    <g id="页面-1" stroke="none" stroke-width="1" fill="none" fill-rule="evenodd">
        <g id="集控-模式控制-模式" transform="translate(-40.000000, -1098.000000)">
            <g id="auto" transform="translate(40.000000, 1098.666667)">
                <g id="编组" transform="translate(3.349435, 0.000000)">
                    <mask id="mask-2" fill="white">
                        <use xlink:href="#path-1"></use>
                    </mask>
                    <g id="Clip-2"></g>
                    <path d="M56.7759296,31.6207094 C55.8891588,31.6207094 55.1412116,30.8941648 55.1412116,29.9988558 C55.1412116,15.2448513 43.2533842,3.24256293 28.6400825,3.24256293 C16.8655804,3.24256293 6.3829871,11.2231121 3.15038198,22.6447368 C2.90673251,23.5085812 2.01146238,24.0034325 1.16435552,23.7574371 C0.311582387,23.5143021 -0.181382812,22.6161327 0.0622666544,21.7551487 C3.68867731,8.94622426 15.4405143,-0.00114416476 28.6400825,-0.00114416476 C42.6017635,-0.00114416476 54.3451012,9.7728833 57.5125442,22.8993135 L57.5267099,22.8564073 C57.8156895,22.0097254 58.7279584,21.5606407 59.569399,21.8524027 C60.4080065,22.1470252 60.8528084,23.0709382 60.5609957,23.9176201 L58.294489,30.5308924 C58.0706715,31.1830664 57.4615478,31.6207094 56.7759296,31.6207094" id="Fill-1" fill="#8C8C8C" mask="url(#mask-2)"></path>
                </g>
                <path d="M31.9906507,60 C18.0204702,60 6.27429946,50.2173913 3.11252267,37.0823799 C2.81221054,37.9061785 1.91410728,38.3466819 1.08116608,38.0520595 C0.242558614,37.7602975 -0.202243318,36.8363844 0.0895694146,35.9897025 L2.35890921,29.3735698 C2.60822494,28.6498856 3.32784081,28.1864989 4.0842874,28.2980549 C4.840734,28.3981693 5.42152633,29.0188787 5.478189,29.7854691 C5.48952153,44.7540046 17.377349,56.7562929 31.9906507,56.7562929 C43.7651528,56.7562929 54.2449129,48.7786041 57.4775181,37.354119 C57.7211675,36.493135 58.6051051,35.9925629 59.4635445,36.2414188 C60.3163176,36.4874142 60.8092828,37.3855835 60.5656334,38.2465675 C56.9420559,51.055492 45.193052,60 31.9906507,60" id="Fill-3" fill="#8C8C8C"></path>
                <path d="M27.4477214,29.6793478 L36.3409269,29.6793478 L31.9524034,19.3561213 L27.4477214,29.6793478 Z M20.5462086,43.1004005 C20.3308905,43.1004005 20.1099061,43.0574943 19.9002542,42.9631007 C19.0871449,42.6026888 18.7188376,41.6444508 19.0758124,40.8235126 L23.5153323,30.646167 C23.5153323,30.646167 23.5181655,30.6433066 23.5181655,30.6404462 L30.5018391,14.6335812 C30.7568211,14.0471968 31.3347803,13.666762 31.9722353,13.666762 L31.9807347,13.666762 C32.6181897,13.6696224 33.1961489,14.055778 33.4482978,14.6478833 L44.5768455,40.8378146 C44.928154,41.6616133 44.5513473,42.6141304 43.7354049,42.9688215 C42.9222956,43.326373 41.9760291,42.9402174 41.6247205,42.1192792 L37.7178297,32.9230549 L37.6866652,32.9230549 L26.0311547,32.9230549 L22.0166048,42.1335812 C21.7531234,42.7399886 21.1638317,43.1004005 20.5462086,43.1004005 L20.5462086,43.1004005 Z" id="Fill-5" fill="#8C8C8C"></path>
            </g>
        </g>
    </g>
</svg>