<?xml version="1.0" encoding="UTF-8"?>
<svg width="64px" height="56px" viewBox="0 0 64 56" version="1.1" xmlns="http://www.w3.org/2000/svg" xmlns:xlink="http://www.w3.org/1999/xlink">
    <title>cooling</title>
    <defs>
        <polygon id="path-1" points="0 0 64 0 64 3.24680867 0 3.24680867"></polygon>
    </defs>
    <g id="页面-1" stroke="none" stroke-width="1" fill="none" fill-rule="evenodd">
        <g id="集控-模式控制-模式" transform="translate(-184.000000, -1100.000000)">
            <g id="编组" transform="translate(184.000000, 1100.000000)">
                <g transform="translate(0.000000, 26.346100)">
                    <mask id="mask-2" fill="white">
                        <use xlink:href="#path-1"></use>
                    </mask>
                    <g id="Clip-2"></g>
                    <path d="M62.3807084,3.24680867 L1.61872038,3.24680867 C0.724825746,3.24680867 -0.000571178681,2.51956934 -0.000571178681,1.62340433 C-0.000571178681,0.727239331 0.724825746,0 1.61872038,0 L62.3807084,0 C63.2746031,0 64,0.727239331 64,1.62340433 C64,2.51956934 63.2746031,3.24680867 62.3807084,3.24680867" id="Fill-1" fill="#0080FF" mask="url(#mask-2)"></path>
                </g>
                <path d="M7.69063535,37.7193792 C7.2765308,37.7193792 6.86242626,37.5619061 6.54827799,37.2440968 C5.91426965,36.6113413 5.91141376,35.5834716 6.54542209,34.9507161 L13.4995225,27.9675006 L6.54542209,20.9900115 C5.91141376,20.357256 5.91426965,19.3293862 6.54542209,18.6937676 C7.17943043,18.0610121 8.20469616,18.0610121 8.8358486,18.6937676 L16.9323064,26.8193787 C17.5663147,27.4549973 17.5663147,28.4800039 16.9351623,29.1127594 L8.8358486,37.2412337 C8.52170033,37.559043 8.10473989,37.7193792 7.69063535,37.7193792" id="Fill-3" fill="#0080FF"></path>
                <path d="M55.8112968,37.7139392 C55.3971923,37.7139392 54.9830878,37.5564661 54.6660836,37.2386568 L46.5667699,29.1216352 C46.2611893,28.8152784 46.0926916,28.4029853 46.0926916,27.9735132 C46.0926916,27.541178 46.2611893,27.1288849 46.5667699,26.8253913 L54.6660836,18.6997802 C55.3000919,18.0670247 56.3225018,18.0670247 56.9565101,18.6997802 C57.5876625,19.3353988 57.5876625,20.3604054 56.9565101,20.9960241 L49.9995538,27.9735132 L56.9565101,34.942413 C57.5876625,35.5751684 57.5876625,36.6030382 56.9565101,37.2386568 C56.6395059,37.5564661 56.2254014,37.7139392 55.8112968,37.7139392" id="Fill-5" fill="#0080FF"></path>
                <path d="M16.8257816,56 C16.5516158,56 16.2717383,55.9312845 16.0175637,55.7824008 C15.2436166,55.3357499 14.9780185,54.3422379 15.4235379,53.5634619 L45.8045319,0.809978966 C46.2557631,0.0369292838 47.2410463,-0.229343385 48.0178493,0.217307543 C48.7917964,0.663958471 49.0573945,1.65747047 48.6090193,2.43624645 L18.2308811,55.1897294 C17.9281564,55.707959 17.3855367,56 16.8257816,56" id="Fill-7" fill="#0080FF"></path>
                <path d="M26.8813823,54.7920383 C26.1674089,54.7920383 25.5134093,54.3138927 25.3192086,53.5895166 L22.7660399,44.0609634 L13.2616266,46.6120274 C12.4020027,46.8296266 11.510964,46.3285758 11.2796366,45.4610423 C11.0483092,44.5963719 11.5595141,43.7059332 12.4248498,43.4740183 L23.4914368,40.5049349 C24.342493,40.2844726 25.2420994,40.7826602 25.4734268,41.6530568 L28.4464118,52.7477514 C28.6777392,53.6124217 28.1665343,54.5028604 27.3011986,54.7347754 C27.1612598,54.7748594 27.021321,54.7920383 26.8813823,54.7920383" id="Fill-9" fill="#0080FF"></path>
                <path d="M39.8736981,15.98294 C39.1597248,15.98294 38.5057252,15.5047945 38.3115244,14.7804183 L35.3442512,3.68572379 C35.1129238,2.81819025 35.6241287,1.93061469 36.4866085,1.69869979 C37.3490883,1.46678488 38.2401271,1.97928819 38.4714545,2.84395858 L41.0189114,12.3725117 L50.5204687,9.8185846 C51.3800926,9.58666969 52.2711314,10.099173 52.5024587,10.9667065 C52.7337861,11.8313769 52.2225812,12.7218156 51.3572455,12.9537305 L40.2935144,15.9256771 C40.1535757,15.9657611 40.0136369,15.98294 39.8736981,15.98294" id="Fill-11" fill="#0080FF"></path>
                <path d="M47.2436166,56 C46.6838615,56 46.1412418,55.707959 45.8385171,55.1897294 L15.4603789,2.43624645 C15.0120037,1.65747047 15.2776018,0.663958471 16.0515489,0.217307543 C16.825496,-0.229343385 17.8136351,0.0340661368 18.2648663,0.809978966 L48.6458603,53.5634619 C49.0913797,54.3422379 48.8257816,55.3357499 48.0518345,55.7824008 C47.79766,55.9312845 47.5177824,56 47.2436166,56" id="Fill-13" fill="#0080FF"></path>
                <path d="M37.188016,54.7920383 C37.0480772,54.7920383 36.9081384,54.7748594 36.7681996,54.7347754 C35.9028639,54.5028604 35.391659,53.6124217 35.6229864,52.7477514 L38.5931155,41.65592 C38.8244429,40.7883865 39.7069139,40.2787463 40.5751055,40.507798 L51.6445484,43.4740183 C52.5070282,43.7059332 53.021089,44.5935088 52.7897616,45.4610423 C52.5584343,46.3285758 51.6731073,46.838216 50.8077716,46.6120274 L41.3005025,44.0609634 L38.7501896,53.5895166 C38.5559889,54.3138927 37.9019893,54.7920383 37.188016,54.7920383" id="Fill-15" fill="#0080FF"></path>
                <path d="M24.1996983,15.9803632 C24.0597596,15.9803632 23.9198208,15.9631843 23.779882,15.9259634 L12.7132951,12.9540168 C11.8479594,12.7221019 11.3367545,11.8316632 11.5652259,10.9669928 C11.7965533,10.0994593 12.6961597,9.58695601 13.5500718,9.81887091 L23.0544851,12.3699349 L25.5962302,2.84710804 C25.8275576,1.9795745 26.727164,1.47852378 27.5810761,1.69612295 C28.4435559,1.92803786 28.9576168,2.81847657 28.7262894,3.6860101 L25.761872,14.7778415 C25.5676713,15.5022177 24.9136717,15.9803632 24.1996983,15.9803632" id="Fill-17" fill="#0080FF"></path>
            </g>
        </g>
    </g>
</svg>