<?xml version="1.0" encoding="UTF-8"?>
<svg width="52px" height="62px" viewBox="0 0 52 62" version="1.1" xmlns="http://www.w3.org/2000/svg" xmlns:xlink="http://www.w3.org/1999/xlink">
    <title>dehumidify</title>
    <defs>
        <polygon id="path-1" points="0 0 28.8017524 0 28.8017524 6.45978059 0 6.45978059"></polygon>
        <polygon id="path-3" points="0 0 28.8019859 0 28.8019859 6.46471044 0 6.46471044"></polygon>
        <polygon id="path-5" points="0 0 28.8019859 0 28.8019859 6.46228683 0 6.46228683"></polygon>
    </defs>
    <g id="页面-1" stroke="none" stroke-width="1" fill="none" fill-rule="evenodd">
        <g id="集控-模式控制-模式" transform="translate(-334.000000, -1097.000000)">
            <g id="编组" transform="translate(334.666667, 1097.333333)">
                <path d="M23.8045419,61.3333333 C10.6763601,61.3333333 0,50.4824561 0,37.1461988 C0,18.8187135 20.5987561,0 23.8045419,0 C25.8477267,0 34.5758669,7.93859649 40.2593739,16.3918129 C40.7687312,17.1491228 40.5759237,18.1783626 39.8334706,18.6959064 C39.0910175,19.2134503 38.0723028,19.0175439 37.5658232,18.2631579 C32.3024641,10.4327485 25.7671504,4.78947368 23.7815201,3.48538012 C20.1872415,5.74853801 3.26046252,21.254386 3.26046252,37.1461988 C3.26046252,48.6549708 12.477816,58.0175439 23.8045419,58.0175439 C29.8966859,58.0175439 35.6377474,55.2953216 39.5543313,50.5467836 C40.132754,49.8421053 41.1601019,49.748538 41.8536336,50.3391813 C42.5442876,50.9269006 42.6334971,51.9736842 42.0550744,52.6754386 C37.5169019,58.1783626 30.8636015,61.3333333 23.8045419,61.3333333" id="Fill-1" fill="#8C8C8C"></path>
                <g transform="translate(21.864914, 24.238757)">
                    <mask id="mask-2" fill="white">
                        <use xlink:href="#path-1"></use>
                    </mask>
                    <g id="Clip-4"></g>
                    <path d="M7.05420837,6.45978059 C4.4527449,6.45978059 2.36639421,5.8340496 1.00810798,5.26095018 C0.176445427,4.91299697 -0.220680635,3.94223673 0.124646375,3.09720749 C0.46709566,2.24925428 1.42537811,1.8457455 2.25704066,2.1966227 C4.38943495,3.09720749 8.7894766,4.15276305 14.2744206,1.18200281 C20.3320319,-2.09577496 27.7191522,2.46270457 28.0299465,2.658611 C28.7954214,3.14106714 29.0313948,4.158611 28.5594479,4.93638878 C28.087501,5.71416656 27.0774195,5.95978059 26.3148224,5.48024843 C26.2543901,5.43931276 20.1939011,1.73171042 15.8111258,4.10597942 C12.5391524,5.87790925 9.5578292,6.45978059 7.05420837,6.45978059" id="Fill-3" fill="#8C8C8C" mask="url(#mask-2)"></path>
                </g>
                <g transform="translate(21.864681, 31.994939)">
                    <mask id="mask-4" fill="white">
                        <use xlink:href="#path-3"></use>
                    </mask>
                    <g id="Clip-6"></g>
                    <path d="M7.05300306,6.46471044 C4.45153959,6.46471044 2.3651889,5.83605547 1.00690266,5.26588003 C0.175240116,4.91500283 -0.219008221,3.9442426 0.123441064,3.09921336 C0.465890349,2.25418412 1.42705053,1.84775137 2.25583535,2.20155254 C4.38822964,3.09921336 8.78251584,4.16061687 14.276093,1.18400868 C20.3337043,-2.09961705 27.7208246,2.46763441 28.0316189,2.66354085 C28.7970938,3.14599699 29.0301895,4.16354085 28.5582426,4.94131862 C28.0862957,5.7190964 27.0790919,5.96471044 26.3164948,5.48517827 C26.2531848,5.4442426 20.2099621,1.72494435 15.8099205,4.11090927 C12.5379471,5.88283909 9.55662388,6.46471044 7.05300306,6.46471044" id="Fill-5" fill="#8C8C8C" mask="url(#mask-4)"></path>
                </g>
                <g transform="translate(21.864681, 39.757304)">
                    <mask id="mask-6" fill="white">
                        <use xlink:href="#path-5"></use>
                    </mask>
                    <g id="Clip-8"></g>
                    <path d="M7.05300306,6.46228683 C4.45153959,6.46228683 2.3651889,5.83363186 1.00690266,5.26345642 C0.175240116,4.91550321 -0.219008221,3.94474297 0.123441064,3.09971373 C0.465890349,2.25468449 1.42705053,1.85117572 2.25583535,2.19912894 C4.39110736,3.09971373 8.78827129,4.15526929 14.276093,1.18450906 C20.3308266,-2.09911667 27.7208246,2.46521081 28.0316189,2.66111724 C28.7970938,3.14357338 29.0301895,4.16111724 28.5582426,4.93889502 C28.0862957,5.71959678 27.0790919,5.95936286 26.3164948,5.48275467 C26.2560625,5.44474297 20.1926958,1.73421666 15.8099205,4.10848566 C12.5379471,5.88041549 9.55662388,6.46228683 7.05300306,6.46228683" id="Fill-7" fill="#8C8C8C" mask="url(#mask-6)"></path>
                </g>
            </g>
        </g>
    </g>
</svg>