<?xml version="1.0" encoding="UTF-8"?>
<svg width="80px" height="80px" viewBox="0 0 80 80" version="1.1" xmlns="http://www.w3.org/2000/svg" xmlns:xlink="http://www.w3.org/1999/xlink">
    <title>fan icon</title>
    <g id="页面-1" stroke="none" stroke-width="1" fill="none" fill-rule="evenodd">
        <g id="集控-模式控制-风档（根据档位改变图标转速）" transform="translate(-320.000000, -941.000000)" fill="#000000">
            <g id="编组" transform="translate(320.000000, 941.000000)">
                <path d="M46.729589,39 C45.9317463,39 45.1543612,38.5817515 44.7206621,37.8322172 C44.0782964,36.7141272 44.4547145,35.2771746 45.5594198,34.6228849 L50.8783708,31.492233 C52.6990887,30.4155538 54.3602381,27.4960967 54.3602381,25.3634436 L54.3602381,15.8224093 C54.3602381,13.6938974 52.6990887,10.7868635 50.8742793,9.72260748 L42.8058397,5.01420645 C42.2248466,4.67463839 41.8893435,4.68292054 41.827971,4.69948483 C41.8075135,4.72847235 41.6356704,5.0224886 41.6356704,5.69748365 L41.6356704,17.1599762 C41.6356704,18.4561324 40.5964292,19.503824 39.3157895,19.503824 C38.0351497,19.503824 37,18.4561324 37,17.1599762 L37,5.69748365 C37,3.41161085 37.9164962,1.56469189 39.5203645,0.628809185 C41.1283243,-0.311214592 43.1699833,-0.191123448 45.1216292,0.947671876 L53.1941603,5.65193183 C56.4469035,7.55682583 59,12.0209035 59,15.8224093 L59,25.3634436 C59,29.1608084 56.459178,33.6373093 53.2105263,35.5504854 L47.8956667,38.6811373 C47.5274317,38.8964732 47.1264646,39 46.729589,39" id="Fill-1"></path>
                <path d="M17.1584158,43 L5.69583187,43 C3.41408198,43 1.5671483,42.0794123 0.627117035,40.475544 C-0.308773123,38.8716757 -0.19282213,36.8300167 0.945982266,34.8742793 L5.65442081,26.8058397 C7.55104776,23.549005 12.0193021,21 15.8249793,21 L25.3619485,21 C29.1593435,21 33.6358801,23.540822 35.5449304,26.7853822 L38.6797483,32.1043333 C39.3340432,33.2090385 38.9530613,34.6328808 37.8349625,35.2752464 C36.7127225,35.9176121 35.2757584,35.5452855 34.6256046,34.4364887 L31.4907867,29.1175377 C30.4140989,27.2968198 27.4946186,25.6356704 25.3619485,25.6356704 L15.8249793,25.6356704 C13.6964504,25.6356704 10.7852522,27.3009113 9.72098778,29.1216292 L5.01254924,37.1941603 C4.67711958,37.7710619 4.68126069,38.106565 4.69782511,38.1679375 C4.72681286,38.188395 5.02083145,38.3602381 5.69583187,38.3602381 L17.1584158,38.3602381 C18.4545822,38.3602381 19.5064234,39.3994793 19.5064234,40.680119 C19.5064234,41.9607588 18.4545822,43 17.1584158,43" id="Fill-3"></path>
                <path d="M38.106565,80 C37.0632323,80 35.9585271,79.681145 34.8783708,79.051717 L26.8058397,74.3475709 C23.5530965,72.4468639 21,67.9787533 21,64.1773394 L21,54.6365359 C21,50.839263 23.540822,46.3628704 26.7853822,44.4538815 L32.1043333,41.3191644 C33.2172215,40.6690316 34.6328808,41.0417192 35.2752464,42.1680641 C35.9217036,43.286127 35.5452855,44.7230448 34.4405802,45.3773187 L29.1216292,48.5120358 C27.2968198,49.584548 25.6397619,52.5039345 25.6397619,54.6365359 L25.6397619,64.1773394 C25.6397619,66.3057999 27.3009113,69.2169044 29.1257207,70.2769937 L37.1941603,74.9852808 C37.7669704,75.3206997 38.1024735,75.3248407 38.1679375,75.2999948 C38.1924865,75.271008 38.3602381,74.9769989 38.3602381,74.3020202 L38.3602381,62.8398049 C38.3602381,61.5436801 39.3994793,60.4960138 40.680119,60.4960138 C41.9607588,60.4960138 43,61.5436801 43,62.8398049 L43,74.3020202 C43,76.5836967 42.0835038,78.4347119 40.4796355,79.370572 C39.7595313,79.7929513 38.9535057,80 38.106565,80" id="Fill-5"></path>
                <path d="M64.1755229,59 L54.6388565,59 C50.837441,59 46.3651875,56.459178 44.4520568,53.2146178 L41.3173384,47.8956667 C40.6672053,46.7909615 41.048175,45.3671192 42.1662384,44.7247536 C43.2925837,44.0823879 44.7253612,44.4547145 45.3754944,45.5635113 L48.5102128,50.8824623 C49.5827254,52.7031802 52.5062541,54.3602381 54.6388565,54.3602381 L64.1755229,54.3602381 C66.3081253,54.3602381 69.2150901,52.6990887 70.2793208,50.8783708 L74.9834689,42.8058397 C75.3230289,42.2289381 75.3188879,41.8893435 75.302324,41.8320625 C75.2733372,41.811605 74.9751869,41.6397619 74.3043489,41.6397619 L62.8421288,41.6397619 C61.5460035,41.6397619 60.4941958,40.6005207 60.4941958,39.319881 C60.4941958,38.0392412 61.5460035,37 62.8421288,37 L74.3043489,37 C76.5860264,37 78.4329014,37.9205877 79.3729029,39.524456 C80.3087633,41.1242328 80.192816,43.1658918 79.0540478,45.1216292 L74.3457587,53.1941603 C72.4491919,56.4469035 67.9769384,59 64.1755229,59" id="Fill-7"></path>
            </g>
        </g>
    </g>
</svg>