<?xml version="1.0" encoding="UTF-8"?>
<svg width="80px" height="80px" viewBox="0 0 80 80" version="1.1" xmlns="http://www.w3.org/2000/svg" xmlns:xlink="http://www.w3.org/1999/xlink">
    <title>fan</title>
    <g id="页面-1" stroke="none" stroke-width="1" fill="none" fill-rule="evenodd">
        <g id="集控-模式控制" transform="translate(-544.000000, -994.000000)">
            <g id="fan" transform="translate(544.000000, 994.000000)">
                <rect id="矩形备份-10" fill="#FFFFFF" x="0" y="0" width="80" height="80" rx="40"></rect>
                <g id="编组" transform="translate(8.000000, 8.000000)" fill="#0080FF">
                    <path d="M36.9605728,31 C36.3077924,31 35.67175,30.6675461 35.3169053,30.0717624 C34.7913335,29.1830242 35.0993119,28.0408311 36.0031616,27.5207546 L40.3550307,25.0322878 C41.8447089,24.1764658 43.2038311,21.8558717 43.2038311,20.160686 L43.2038311,12.5767869 C43.2038311,10.8848928 41.8447089,8.57417353 40.3516831,7.72822646 L33.7502325,3.98565128 C33.2748745,3.71573821 33.000372,3.72232145 32.9501581,3.73548795 C32.9334201,3.75852931 32.7928213,3.99223453 32.7928213,4.52876905 L32.7928213,13.6399811 C32.7928213,14.670259 31.942533,15.5030396 30.8947368,15.5030396 C29.8469407,15.5030396 29,14.670259 29,13.6399811 L29,4.52876905 C29,2.71179324 29.7498605,1.24372945 31.0621164,0.499822686 C32.3777199,-0.247375701 34.0481681,-0.151918639 35.6449693,0.753277645 L42.2497675,4.4925612 C44.9111028,6.00670771 47,9.55507714 47,12.5767869 L47,20.160686 C47,23.1791041 44.9211456,26.7373484 42.2631579,28.2580782 L37.9146364,30.746545 C37.6133532,30.9177094 37.2852892,31 36.9605728,31" id="Fill-1"></path>
                    <path d="M13.6387407,35 L4.52745611,35 C2.71375747,35 1.24568198,34.2467919 0.498477643,32.934536 C-0.245435047,31.6222801 -0.153268873,29.9518319 0.751934622,28.3516831 L4.49453961,21.7502325 C6.00211489,19.0855496 9.55380424,17 12.5788297,17 L20.1594975,17 C23.1779397,17 26.7362124,19.0788544 28.2536626,21.7334945 L30.745441,26.0853636 C31.2655215,26.9892133 30.9626898,28.1541752 30.0739445,28.6797471 C29.1819076,29.205319 28.0397054,28.9006881 27.5229165,27.9934908 L25.0311382,23.6416217 C24.1753094,22.1519435 21.8546968,20.7928213 20.1594975,20.7928213 L12.5788297,20.7928213 C10.8869221,20.7928213 8.57289281,22.1552911 7.726939,23.6449693 L3.98433401,30.2497675 C3.71771043,30.7217779 3.72100208,30.9962805 3.73416868,31.0464943 C3.75721022,31.0632323 3.99091731,31.2038311 4.52745611,31.2038311 L13.6387407,31.2038311 C14.6690269,31.2038311 15.5051058,32.0541194 15.5051058,33.1019156 C15.5051058,34.1497117 14.6690269,35 13.6387407,35" id="Fill-3"></path>
                    <path d="M30.9962805,64 C30.1426446,64 29.2387949,63.7465512 28.3550307,63.2462366 L21.7502325,59.5070435 C19.0888972,57.9962252 17,54.44465 17,51.4230134 L17,43.8392978 C17,40.8209527 19.0788544,37.2627944 21.7334945,35.745393 L26.0853636,33.2536948 C26.9959085,32.7369225 28.1541752,33.0331614 28.6797471,33.9284612 C29.2086665,34.8171778 28.9006881,35.9593433 27.9968384,36.4794072 L23.6449693,38.9711054 C22.1519435,39.8236151 20.7961689,42.144153 20.7961689,43.8392978 L20.7961689,51.4230134 C20.7961689,53.1148666 22.1552911,55.4288215 23.6483169,56.2714565 L30.2497675,60.0139412 C30.7184304,60.2805562 30.9929329,60.2838477 31.0464943,60.2640984 C31.0665799,60.2410576 31.2038311,60.0073581 31.2038311,59.4708365 L31.2038311,50.3598449 C31.2038311,49.3295919 32.0541194,48.4968314 33.1019156,48.4968314 C34.1497117,48.4968314 35,49.3295919 35,50.3598449 L35,59.4708365 C35,61.2844768 34.2501395,62.7557967 32.9378836,63.4996854 C32.3487075,63.8354228 31.6892319,64 30.9962805,64" id="Fill-5"></path>
                    <path d="M51.4215695,47 L43.8411423,47 C40.8195044,47 37.2646362,44.9211456 35.7439426,42.2665055 L33.2522434,37.9146364 C32.7354709,37.0107867 33.038293,35.8458248 33.92701,35.3202529 C34.8223101,34.794681 35.9611846,35.0993119 36.4779571,36.0065092 L38.9696563,40.3583783 C39.8221664,41.8480565 42.1459969,43.2038311 43.8411423,43.2038311 L51.4215695,43.2038311 C53.116715,43.2038311 55.4273793,41.8447089 56.2733063,40.3550307 L60.0125009,33.7502325 C60.2824076,33.2782221 60.279116,33.000372 60.2659498,32.9535057 C60.242909,32.9367677 60.0059178,32.7961689 59.4726876,32.7961689 L50.3616922,32.7961689 C49.3314387,32.7961689 48.4953864,31.9458806 48.4953864,30.8980844 C48.4953864,29.8502883 49.3314387,29 50.3616922,29 L59.4726876,29 C61.2863287,29 62.7543576,29.7532081 63.5015382,31.065464 C64.2454273,32.3743723 64.153264,34.0448205 63.2480892,35.6449693 L59.505603,42.2497675 C57.9980756,44.9111028 54.4432075,47 51.4215695,47" id="Fill-7"></path>
                </g>
            </g>
        </g>
    </g>
</svg>