<?xml version="1.0" encoding="UTF-8"?>
<svg width="64px" height="64px" viewBox="0 0 64 64" version="1.1" xmlns="http://www.w3.org/2000/svg" xmlns:xlink="http://www.w3.org/1999/xlink">
    <title>heating</title>
    <defs>
        <polygon id="path-1" points="0 0 10.6572423 0 10.6572423 3.24099834 0 3.24099834"></polygon>
    </defs>
    <g id="页面-1" stroke="none" stroke-width="1" fill="none" fill-rule="evenodd">
        <g id="集控-模式控制-模式" transform="translate(-472.000000, -1096.000000)">
            <g id="编组" transform="translate(472.000000, 1096.000000)">
                <path d="M31.9945739,64 C31.1006872,64 30.3752967,63.2740621 30.3752967,62.3795008 L30.3752967,54.9543565 C30.3752967,54.0597952 31.1006872,53.3338573 31.9945739,53.3338573 C32.8884605,53.3338573 33.613851,54.0597952 33.613851,54.9543565 L33.613851,62.3795008 C33.613851,63.2740621 32.8884605,64 31.9945739,64" id="Fill-1" fill="#8C8C8C"></path>
                <path d="M32.0002856,16.2592942 C23.3270147,16.2592942 16.273021,23.3214696 16.273021,31.9984281 C16.273021,40.6782446 23.3270147,47.74042 32.0002856,47.74042 C40.6735564,47.74042 47.7275502,40.6782446 47.7275502,31.9984281 C47.7275502,23.3214696 40.6735564,16.2592942 32.0002856,16.2592942 M32.0002856,50.9785604 C21.5420973,50.9785604 13.0344668,42.4645092 13.0344668,31.9984281 C13.0344668,21.532347 21.5420973,13.0182958 32.0002856,13.0182958 C42.4584739,13.0182958 50.9661044,21.532347 50.9661044,31.9984281 C50.9661044,42.4645092 42.4584739,50.9785604 32.0002856,50.9785604" id="Fill-3" fill="#8C8C8C"></path>
                <path d="M48.1802053,17.4202232 C47.7661044,17.4202232 47.3520036,17.2630319 47.0350022,16.9457913 C46.4038554,16.3141682 46.4038554,15.2852798 47.0350022,14.6536567 L52.2812316,9.40346803 C52.9152343,8.7718449 53.937635,8.7718449 54.5716377,9.40346803 C55.2027845,10.0379492 55.2027845,11.0639795 54.5716377,11.6956027 L49.3254083,16.9457913 C49.008407,17.2630319 48.5943061,17.4202232 48.1802053,17.4202232" id="Fill-5" fill="#8C8C8C"></path>
                <g transform="translate(53.342758, 30.396792)">
                    <mask id="mask-2" fill="white">
                        <use xlink:href="#path-1"></use>
                    </mask>
                    <g id="Clip-8"></g>
                    <path d="M9.03882195,3.24099834 L1.61927711,3.24099834 C0.725390451,3.24099834 0,2.51506044 0,1.62049917 C0,0.725937901 0.725390451,0 1.61927711,0 L9.03882195,0 C9.93270861,0 10.6580991,0.725937901 10.6580991,1.62049917 C10.6580991,2.51506044 9.93270861,3.24099834 9.03882195,3.24099834" id="Fill-7" fill="#8C8C8C" mask="url(#mask-2)"></path>
                </g>
                <path d="M53.4875502,55.0855397 C53.0734494,55.0855397 52.6593485,54.9283485 52.3423472,54.6111079 L47.0961178,49.3609192 C46.464971,48.7292961 46.464971,47.7032657 47.0961178,47.0687846 C47.7301205,46.4371614 48.7525212,46.4371614 49.3865239,47.0687846 L54.6327532,52.3189733 C55.2639,52.9505964 55.2639,53.9794848 54.6327532,54.6111079 C54.3157519,54.9283485 53.901651,55.0855397 53.4875502,55.0855397" id="Fill-9" fill="#8C8C8C"></path>
                <path d="M10.5658545,55.0449558 C10.1517537,55.0449558 9.73765283,54.8877645 9.42065149,54.570524 C8.78950469,53.9389008 8.78950469,52.9100125 9.42065149,52.2783893 L14.6668809,47.0282007 C15.3008835,46.3965775 16.3232842,46.3965775 16.9572869,47.0282007 C17.5884337,47.6626818 17.5884337,48.6887121 16.9572869,49.3203353 L11.7110576,54.570524 C11.3940562,54.8877645 10.9799554,55.0449558 10.5658545,55.0449558" id="Fill-11" fill="#8C8C8C"></path>
                <path d="M9.03882195,33.6377902 L1.61927711,33.6377902 C0.725390451,33.6377902 0,32.9118523 0,32.017291 C0,31.1227298 0.725390451,30.3967919 1.61927711,30.3967919 L9.03882195,30.3967919 C9.93270861,30.3967919 10.6580991,31.1227298 10.6580991,32.017291 C10.6580991,32.9118523 9.93270861,33.6377902 9.03882195,33.6377902" id="Fill-13" fill="#8C8C8C"></path>
                <path d="M15.8592057,17.3965016 C15.4451049,17.3965016 15.031004,17.2393103 14.7140027,16.9220697 L9.46777332,11.6718811 C8.83662651,11.0373999 8.83662651,10.0113696 9.46777332,9.37974644 C10.101776,8.74526528 11.1241767,8.74526528 11.7581794,9.37974644 L17.0044087,14.6299351 C17.6355556,15.2644163 17.6355556,16.2904466 17.0044087,16.9220697 C16.6874074,17.2393103 16.2733066,17.3965016 15.8592057,17.3965016" id="Fill-15" fill="#8C8C8C"></path>
                <path d="M31.9945739,10.6632847 C31.1006872,10.6632847 30.3752967,9.93734677 30.3752967,9.0427855 L30.3752967,1.61764115 C30.3752967,0.723079877 31.1006872,0 31.9945739,0 C32.8884605,0 33.613851,0.723079877 33.613851,1.61764115 L33.613851,9.0427855 C33.613851,9.93734677 32.8884605,10.6632847 31.9945739,10.6632847" id="Fill-17" fill="#8C8C8C"></path>
            </g>
        </g>
    </g>
</svg>