<?xml version="1.0" encoding="UTF-8"?>
<svg width="26px" height="32px" viewBox="0 0 26 32" version="1.1" xmlns="http://www.w3.org/2000/svg" xmlns:xlink="http://www.w3.org/1999/xlink">
    <title>lock</title>
    <defs>
        <polygon id="path-1" points="0 0 25.6 0 25.6 17.4627556 0 17.4627556"></polygon>
        <polygon id="path-3" points="-2.74658962e-15 0 15.4820255 0 15.4820255 12.7773916 -2.74658962e-15 12.7773916"></polygon>
    </defs>
    <g id="页面-1" stroke="none" stroke-width="1" fill="none" fill-rule="evenodd">
        <g id="集控-二设控制" transform="translate(-187.000000, -743.000000)">
            <g id="lock备份-25" transform="translate(187.200000, 743.000000)">
                <g id="lock">
                    <g id="编组" transform="translate(0.000000, 14.537244)">
                        <mask id="mask-2" fill="white">
                            <use xlink:href="#path-1"></use>
                        </mask>
                        <g id="Clip-4"></g>
                        <path d="M3.13536915,1.72995237 C2.37309625,1.72995237 1.75307306,2.34169038 1.75307306,3.09377726 L1.75307306,14.3689783 C1.75307306,15.1210652 2.37309625,15.7328032 3.13536915,15.7328032 L22.4643216,15.7328032 C23.2265945,15.7328032 23.8466177,15.1210652 23.8466177,14.3689783 L23.8466177,3.09377726 C23.8466177,2.34169038 23.2265945,1.72995237 22.4643216,1.72995237 L3.13536915,1.72995237 Z M22.4643216,17.4627556 L3.13536915,17.4627556 C1.40672594,17.4627556 -0.0003092385,16.0745222 -0.0003092385,14.3689783 L-0.0003092385,3.09377726 C-0.0003092385,1.38823339 1.40672594,0 3.13536915,0 L22.4643216,0 C24.1929648,0 25.6,1.38823339 25.6,3.09377726 L25.6,14.3689783 C25.6,16.0745222 24.1929648,17.4627556 22.4643216,17.4627556 L22.4643216,17.4627556 Z" id="Fill-3" fill="#888888" mask="url(#mask-2)"></path>
                    </g>
                    <g id="编组" transform="translate(5.058833, 0.000000)">
                        <mask id="mask-4" fill="white">
                            <use xlink:href="#path-3"></use>
                        </mask>
                        <g id="Clip-6"></g>
                        <path d="M14.6053344,12.7773916 C14.1213761,12.7773916 13.7286432,12.3899067 13.7286432,11.9124154 L13.7286432,7.63787703 C13.7286432,4.3793424 11.0429068,1.72949472 7.74178585,1.72949472 C4.43911867,1.72949472 1.7518361,4.3793424 1.7518361,7.63787703 L1.7518361,11.9124154 C1.7518361,12.3899067 1.3606494,12.7773916 0.876691148,12.7773916 C0.392732895,12.7773916 -2.74658962e-15,12.3899067 -2.74658962e-15,11.9124154 L-2.74658962e-15,7.63787703 C-2.74658962e-15,3.4258854 3.47274836,-0.000457659358 7.74178585,-0.000457659358 C12.0092772,-0.000457659358 15.4820255,3.4258854 15.4820255,7.63787703 L15.4820255,11.9124154 C15.4820255,12.3899067 15.0892926,12.7773916 14.6053344,12.7773916" id="Fill-5" fill="#888888" mask="url(#mask-4)"></path>
                    </g>
                </g>
                <path d="M12.7998454,26.5764315 C12.3158871,26.5764315 11.9231542,26.1889466 11.9231542,25.7114553 L11.9231542,20.8251789 C11.9231542,20.3476876 12.3158871,19.9617282 12.7998454,19.9617282 C13.2838036,19.9617282 13.6765365,20.3476876 13.6765365,20.8251789 L13.6765365,25.7114553 C13.6765365,26.1889466 13.2838036,26.5764315 12.7998454,26.5764315" id="Fill-1" fill="#888888"></path>
            </g>
        </g>
    </g>
</svg>