<?xml version="1.0" encoding="UTF-8"?>
<svg width="80px" height="80px" viewBox="0 0 80 80" version="1.1" xmlns="http://www.w3.org/2000/svg" xmlns:xlink="http://www.w3.org/1999/xlink">
    <title>mode</title>
    <defs>
        <polygon id="path-1" points="0 0 63.9975592 0 63.9975592 64 0 64"></polygon>
    </defs>
    <g id="页面-1" stroke="none" stroke-width="1" fill="none" fill-rule="evenodd">
        <g id="集控-模式控制" transform="translate(-96.000000, -994.000000)">
            <g id="mode" transform="translate(96.000000, 994.000000)">
                <rect id="矩形备份-12" fill="#FFFFFF" x="0" y="0" width="80" height="80" rx="40"></rect>
                <g id="模式" transform="translate(8.000000, 8.000000)">
                    <g id="编组">
                        <mask id="mask-2" fill="white">
                            <use xlink:href="#path-1"></use>
                        </mask>
                        <g id="Clip-2"></g>
                        <path d="M31.9987796,3.45982228 C16.2617749,3.45982228 3.45982228,16.2617749 3.45982228,31.9987796 C3.45982228,47.7388353 16.2617749,60.5407879 31.9987796,60.5407879 C47.7357843,60.5407879 60.5377369,47.7388353 60.5377369,31.9987796 C60.5377369,16.2617749 47.7357843,3.45982228 31.9987796,3.45982228 M31.9987796,64.0006102 C14.3549064,64.0006102 0,49.6457038 0,31.9987796 C0,14.3549064 14.3549064,0 31.9987796,0 C49.6426528,0 63.9975592,14.3549064 63.9975592,31.9987796 C63.9975592,49.6457038 49.6426528,64.0006102 31.9987796,64.0006102" id="Fill-1" fill="#0080FF" mask="url(#mask-2)"></path>
                    </g>
                    <path d="M43.2746272,48.0881736 C42.3196674,48.0881736 41.5447161,47.3132222 41.5447161,46.3582625 L41.5447161,22.1334045 L34.182678,35.4174135 C33.7433355,36.2076198 32.9073643,36.7018802 32.0012204,36.7049312 L31.9981694,36.7049312 C31.0920255,36.7049312 30.2560543,36.2106708 29.8136608,35.4204645 L22.4516227,22.1334045 L22.4516227,46.3582625 C22.4516227,47.3132222 21.6766714,48.0881736 20.7217116,48.0881736 C19.7667518,48.0881736 18.9918005,47.3132222 18.9918005,46.3582625 L18.9918005,18.4111971 C18.9918005,17.257923 19.7453949,16.2846573 20.8620571,15.9948133 C21.9878723,15.7080203 23.1136875,16.1900767 23.6720186,17.1999542 L31.9981694,32.2199764 L40.3243202,17.1999542 C40.8857023,16.1900767 42.0176195,15.7080203 43.1342817,15.9948133 C44.2509439,16.2846573 45.0045383,17.257923 45.0045383,18.4111971 L45.0045383,46.3582625 C45.0045383,47.3132222 44.229587,48.0881736 43.2746272,48.0881736" id="Fill-3" fill="#0080FF"></path>
                </g>
            </g>
        </g>
    </g>
</svg>