<?xml version="1.0" encoding="UTF-8"?>
<svg width="80px" height="80px" viewBox="0 0 80 80" version="1.1" xmlns="http://www.w3.org/2000/svg" xmlns:xlink="http://www.w3.org/1999/xlink">
    <title>set temp</title>
    <defs>
        <polygon id="path-1" points="0 0 32 0 32 32 0 32"></polygon>
    </defs>
    <g id="页面-1" stroke="none" stroke-width="1" fill="none" fill-rule="evenodd">
        <g id="集控-模式控制" transform="translate(-320.000000, -994.000000)">
            <g id="set-temp" transform="translate(320.000000, 994.000000)">
                <rect id="矩形备份-11" fill="#FFFFFF" x="0" y="0" width="80" height="80" rx="40"></rect>
                <g id="编组" transform="translate(8.000000, 8.000000)">
                    <path d="M43.5,40.4490416 C41.8157156,40.4490416 40.4476146,41.816503 40.4476146,43.5 C40.4476146,45.183497 41.8157156,46.5509584 43.5,46.5509584 C45.1842844,46.5509584 46.5523854,45.183497 46.5523854,43.5 C46.5523854,41.816503 45.1842844,40.4490416 43.5,40.4490416 M43.5,50 C39.9155753,50 37,47.0827489 37,43.5 C37,39.9172511 39.9155753,37 43.5,37 C47.0844247,37 50,39.9172511 50,43.5 C50,47.0827489 47.0844247,50 43.5,50" id="Fill-1" fill="#0080FF"></path>
                    <g transform="translate(28.000000, 28.000000)">
                        <mask id="mask-2" fill="white">
                            <use xlink:href="#path-1"></use>
                        </mask>
                        <g id="Clip-4"></g>
                        <path d="M14.0283971,28.5373248 L17.9704994,28.5373248 C18.4181148,26.9051387 19.4954787,25.5048146 21.03898,24.6261798 C22.5793943,23.747545 24.3513337,23.5248355 26.0028801,23.9550005 L27.9754747,20.5838497 C26.7653697,19.3848794 26.0769682,17.7618457 26.0769682,16.0015254 C26.0769682,14.2381543 26.7653697,12.6151206 27.9754747,11.4192011 L26.0028801,8.04194871 C24.3482467,8.47211364 22.5824813,8.25855658 21.03898,7.37382019 C19.4954787,6.49518543 18.4181148,5.09486128 17.9704994,3.45962437 L14.0283971,3.45962437 C13.5807818,5.09486128 12.5034179,6.49518543 10.9599166,7.37382019 C9.41950229,8.25855658 7.65373682,8.47211364 5.99601644,8.04194871 L4.0265088,11.4192011 C5.23661381,12.6151206 5.92501538,14.2381543 5.92501538,16.0015254 C5.92501538,17.7618457 5.23661381,19.3848794 4.0265088,20.5838497 L5.99601644,23.9550005 C7.65682382,23.5248355 9.42258929,23.747545 10.9630036,24.6261798 C12.5034179,25.5048146 13.5807818,26.9051387 14.0283971,28.5373248 M19.4923917,32 L12.5095919,32 C11.5433601,32 10.7592614,31.225093 10.7592614,30.267137 C10.7592614,29.1627419 10.1789049,28.1742778 9.21267312,27.6190295 C8.24026731,27.0668319 7.08572835,27.0637811 6.11640954,27.6190295 C5.27674484,28.0949566 4.20864195,27.8173324 3.72706955,26.9844599 L0.235669642,21.0109639 C-0.248989762,20.1872438 0.0381014775,19.1286109 0.874679174,18.6496329 C1.84399798,18.0974354 2.42435447,17.1059205 2.42435447,16.0015254 C2.42435447,14.8940795 1.84399798,13.9025646 0.874679174,13.3503671 C0.0381014775,12.8713891 -0.248989762,11.815807 0.235669642,10.9890361 L3.72706955,5.01248927 C3.95859474,4.61283249 4.34138306,4.32300505 4.78899843,4.20402326 C5.2304398,4.08809229 5.71509921,4.14910859 6.11640954,4.37791973 C7.08264135,4.93011727 8.24026731,4.93011727 9.20958612,4.38097054 C10.1789049,3.82572219 10.7592614,2.83725808 10.7592614,1.72981218 C10.7592614,0.77185623 11.5433601,0 12.5095919,0 L19.4923917,0 C20.4586235,0 21.2396351,0.77185623 21.2396351,1.72981218 C21.2396351,2.83420726 21.8199916,3.82572219 22.7893104,4.38097054 C23.7555422,4.93011727 24.9162552,4.93011727 25.882487,4.37791973 C26.2868843,4.14910859 26.7653697,4.08809229 27.2129851,4.20402326 C27.6606005,4.32300505 28.0433888,4.61283249 28.274914,5.01248927 L31.7663139,10.9890361 C32.2478863,11.815807 31.9638821,12.8713891 31.1273044,13.3503671 C30.1579856,13.9025646 29.5776291,14.8940795 29.5776291,16.0015254 C29.5776291,17.1059205 30.1579856,18.0974354 31.1273044,18.6496329 C31.9638821,19.1286109 32.2478863,20.1872438 31.7663139,21.0109639 L28.274914,26.9844599 C27.7902546,27.8173324 26.7221517,28.0980074 25.885574,27.6190295 C24.9162552,27.0668319 23.7586292,27.0668319 22.7862234,27.6190295 C21.8199916,28.1742778 21.2396351,29.1627419 21.2396351,30.267137 C21.2396351,31.225093 20.4586235,32 19.4923917,32" id="Fill-3" fill="#0080FF" mask="url(#mask-2)"></path>
                    </g>
                    <path d="M20.5,40 C19.6719577,40 19,39.2364729 19,38.2955912 L19,23.7044088 C19,22.7635271 19.6719577,22 20.5,22 C21.3280423,22 22,22.7635271 22,23.7044088 L22,38.2955912 C22,39.2364729 21.3280423,40 20.5,40" id="Fill-5" fill="#0080FF"></path>
                    <path d="M19.9880687,64 C8.96410903,64 0,54.9020356 0,43.7202651 C0,36.9410307 3.41604423,30.5523192 8.97613736,26.8148925 L8.97613736,11.1756686 C8.97613736,5.01272823 13.9167718,0 19.9880687,0 C26.0593656,0 31,5.01272823 31,11.1756686 L31,27.7698432 C31,28.7247938 30.2362014,29.4997378 29.294985,29.4997378 C28.3537686,29.4997378 27.5899699,28.7247938 27.5899699,27.7698432 L27.5899699,11.1756686 C27.5899699,6.92262955 24.1799399,3.46284025 19.9880687,3.46284025 C15.7961975,3.46284025 12.3861674,6.92262955 12.3861674,11.1756686 L12.3861674,27.7698432 C12.3861674,28.3800353 12.0704239,28.9475139 11.5532059,29.255661 C6.52837327,32.2822139 3.40702299,37.8227583 3.40702299,43.7202651 C3.40702299,52.9951852 10.8465419,60.5371597 19.9880687,60.5371597 C21.4374818,60.5371597 22.8718595,60.3510512 24.2521098,59.978834 C25.4669706,59.6523812 26.6427394,59.1825333 27.7523523,58.5875959 C28.5823067,58.1269009 29.6137356,58.4533537 30.0587836,59.2984698 C30.5008245,60.1405349 30.185081,61.1900653 29.3551266,61.6385565 C28.0139684,62.3616342 26.5946261,62.9260619 25.1271704,63.3196358 C23.4642545,63.771178 21.7351828,64 19.9880687,64" id="Fill-7" fill="#0080FF"></path>
                    <path d="M20,40.4150011 C18.0219355,40.4150011 16.4141935,42.0217064 16.4141935,43.9984956 C16.4141935,45.9782936 18.0219355,47.5849989 20,47.5849989 C21.9780645,47.5849989 23.5858065,45.9782936 23.5858065,43.9984956 C23.5858065,42.0217064 21.9780645,40.4150011 20,40.4150011 M20,51 C16.1402151,51 13,47.8588008 13,43.9984956 C13,40.1411992 16.1402151,37 20,37 C23.8597849,37 27,40.1411992 27,43.9984956 C27,47.8588008 23.8597849,51 20,51" id="Fill-9" fill="#0080FF"></path>
                    <path d="M44.2647284,15 L35.7322112,15 C34.7742923,15 34,14.3286344 34,13.5013216 C34,12.6713656 34.7742923,12 35.7322112,12 L44.2647284,12 C45.2226473,12 46,12.6713656 46,13.5013216 C46,14.3286344 45.2226473,15 44.2647284,15" id="Fill-11" fill="#0080FF"></path>
                    <path d="M44.1976159,10 L35.8023841,10 C34.8074172,10 34,9.32863436 34,8.50132159 C34,7.67136564 34.8074172,7 35.8023841,7 L44.1976159,7 C45.1925828,7 46,7.67136564 46,8.50132159 C46,9.32863436 45.1925828,10 44.1976159,10" id="Fill-13" fill="#0080FF"></path>
                    <path d="M44.1976159,20 L35.8023841,20 C34.8074172,20 34,19.3286344 34,18.5013216 C34,17.6713656 34.8074172,17 35.8023841,17 L44.1976159,17 C45.1925828,17 46,17.6713656 46,18.5013216 C46,19.3286344 45.1925828,20 44.1976159,20" id="Fill-15" fill="#0080FF"></path>
                </g>
            </g>
        </g>
    </g>
</svg>