<?xml version="1.0" encoding="UTF-8"?>
<svg width="80px" height="80px" viewBox="0 0 80 80" version="1.1" xmlns="http://www.w3.org/2000/svg" xmlns:xlink="http://www.w3.org/1999/xlink">
    <title>unlock mode</title>
    <g id="页面-1" stroke="none" stroke-width="1" fill="none" fill-rule="evenodd">
        <g id="集控-二设控制" transform="translate(-592.000000, -994.000000)">
            <g id="unlock-mode" transform="translate(592.000000, 994.000000)">
                <rect id="矩形备份-15" fill="#FFFFFF" x="0" y="0" width="80" height="80" rx="40"></rect>
                <g id="编组-2备份-2" transform="translate(5.000000, 10.000000)" stroke="#0080FF" stroke-width="3">
                    <path d="M39,60 C55.5685425,60 69,46.5685425 69,30 C69,13.4314575 55.5685425,0 39,0 C27.0224551,0 16.6843418,7.01924086 11.8747714,17.1686112" id="路径" stroke-linecap="round" stroke-linejoin="round"></path>
                    <polyline id="路径-2" stroke-linecap="round" stroke-linejoin="round" points="27.5 33.5 27.5 14 39 33.5 50.5 14 50.5 45"></polyline>
                    <rect id="矩形" x="8.5" y="46.5" width="23" height="14" rx="2"></rect>
                    <path d="M0,42.5 L0,37.5 C-4.73447626e-16,33.6340068 3.13400675,30.5 7,30.5 C10.8659932,30.5 14,33.6340068 14,37.5 L14,42.5 L14,42.5" id="路径-4" stroke-linecap="round"></path>
                    <line x1="20" y1="51" x2="20" y2="56" id="路径-5" stroke-linecap="round"></line>
                </g>
            </g>
        </g>
    </g>
</svg>