<?xml version="1.0" encoding="UTF-8"?>
<svg width="80px" height="80px" viewBox="0 0 80 80" version="1.1" xmlns="http://www.w3.org/2000/svg" xmlns:xlink="http://www.w3.org/1999/xlink">
    <title>unlock wire</title>
    <g id="页面-1" stroke="none" stroke-width="1" fill="none" fill-rule="evenodd">
        <g id="集控-二设控制" transform="translate(-320.000000, -994.000000)">
            <g id="unlock-wire" transform="translate(320.000000, 994.000000)">
                <rect id="矩形备份-14" fill="#FFFFFF" x="0" y="0" width="80" height="80" rx="40"></rect>
                <g id="编组-4" transform="translate(5.000000, 16.000000)" stroke="#0080FF" stroke-width="3">
                    <g id="编组-7" transform="translate(41.000000, 24.000000) scale(-1, 1) translate(-41.000000, -24.000000) translate(17.000000, 0.000000)">
                        <path d="M28.5,48 L2,48 C0.8954305,48 0,47.1045695 0,46 L0,2 C0,0.8954305 0.8954305,0 2,0 L46,0 C47.1045695,0 48,0.8954305 48,2 L48,19" id="路径" stroke-linecap="round" stroke-linejoin="round"></path>
                        <rect id="矩形备份-8" x="7.08333333" y="6.68518519" width="34" height="21" rx="2"></rect>
                    </g>
                    <g id="编组-2备份" transform="translate(0.000000, 24.500000)">
                        <rect id="矩形" x="8.5" y="16" width="23" height="14" rx="2"></rect>
                        <path d="M0,12 L0,7 C-4.73447626e-16,3.13400675 3.13400675,7.10171439e-16 7,0 C10.8659932,-7.10171439e-16 14,3.13400675 14,7 L14,12 L14,12" id="路径-4" stroke-linecap="round"></path>
                        <line x1="20" y1="20.5" x2="20" y2="25.5" id="路径-5" stroke-linecap="round"></line>
                    </g>
                </g>
            </g>
        </g>
    </g>
</svg>