<?xml version="1.0" encoding="UTF-8"?>
<svg width="34px" height="32px" viewBox="0 0 34 32" version="1.1" xmlns="http://www.w3.org/2000/svg" xmlns:xlink="http://www.w3.org/1999/xlink">
    <title>unlock</title>
    <defs>
        <polygon id="path-1" points="0 0 25.6 0 25.6 17.4627556 0 17.4627556"></polygon>
        <polygon id="path-3" points="0 0 15.4820255 0 15.4820255 12.7773916 0 12.7773916"></polygon>
    </defs>
    <g id="页面-1" stroke="none" stroke-width="1" fill="none" fill-rule="evenodd">
        <g id="集控-二设控制" transform="translate(-642.000000, -743.000000)">
            <g id="lock备份-45" transform="translate(642.258833, 743.000000)">
                <g id="lock">
                    <g id="编组" transform="translate(7.941167, 14.537244)">
                        <mask id="mask-2" fill="white">
                            <use xlink:href="#path-1"></use>
                        </mask>
                        <g id="Clip-4"></g>
                        <path d="M3.13536915,1.72995237 C2.37309625,1.72995237 1.75307306,2.34169038 1.75307306,3.09377726 L1.75307306,14.3689783 C1.75307306,15.1210652 2.37309625,15.7328032 3.13536915,15.7328032 L22.4643216,15.7328032 C23.2265945,15.7328032 23.8466177,15.1210652 23.8466177,14.3689783 L23.8466177,3.09377726 C23.8466177,2.34169038 23.2265945,1.72995237 22.4643216,1.72995237 L3.13536915,1.72995237 Z M22.4643216,17.4627556 L3.13536915,17.4627556 C1.40672594,17.4627556 -0.0003092385,16.0745222 -0.0003092385,14.3689783 L-0.0003092385,3.09377726 C-0.0003092385,1.38823339 1.40672594,0 3.13536915,0 L22.4643216,0 C24.1929648,0 25.6,1.38823339 25.6,3.09377726 L25.6,14.3689783 C25.6,16.0745222 24.1929648,17.4627556 22.4643216,17.4627556 L22.4643216,17.4627556 Z" id="Fill-3" fill="#06B800" mask="url(#mask-2)"></path>
                    </g>
                    <g id="编组">
                        <mask id="mask-4" fill="white">
                            <use xlink:href="#path-3"></use>
                        </mask>
                        <g id="Clip-6"></g>
                        <path d="M14.6053344,12.7773916 C14.1213761,12.7773916 13.7286432,12.3899067 13.7286432,11.9124154 L13.7286432,7.63787703 C13.7286432,4.3793424 11.0429068,1.72949472 7.74178585,1.72949472 C4.43911867,1.72949472 1.7518361,4.3793424 1.7518361,7.63787703 L1.7518361,11.9124154 C1.7518361,12.3899067 1.3606494,12.7773916 0.876691148,12.7773916 C0.392732895,12.7773916 0,12.3899067 0,11.9124154 L0,7.63787703 C0,3.4258854 3.47274836,-0.000457659358 7.74178585,-0.000457659358 C12.0092772,-0.000457659358 15.4820255,3.4258854 15.4820255,7.63787703 L15.4820255,11.9124154 C15.4820255,12.3899067 15.0892926,12.7773916 14.6053344,12.7773916" id="Fill-5" fill="#06B800" mask="url(#mask-4)"></path>
                    </g>
                </g>
                <path d="M20.7410128,26.5764315 C20.2570545,26.5764315 19.8643216,26.1889466 19.8643216,25.7114553 L19.8643216,20.8251789 C19.8643216,20.3476876 20.2570545,19.9617282 20.7410128,19.9617282 C21.224971,19.9617282 21.6177039,20.3476876 21.6177039,20.8251789 L21.6177039,25.7114553 C21.6177039,26.1889466 21.224971,26.5764315 20.7410128,26.5764315" id="Fill-1" fill="#06B800"></path>
            </g>
        </g>
    </g>
</svg>