<?xml version="1.0" encoding="UTF-8"?>
<svg width="60px" height="60px" viewBox="0 0 60 60" version="1.1" xmlns="http://www.w3.org/2000/svg" xmlns:xlink="http://www.w3.org/1999/xlink">
    <title>wind</title>
    <g id="页面-1" stroke="none" stroke-width="1" fill="none" fill-rule="evenodd">
        <g id="集控-模式控制-模式" transform="translate(-618.000000, -1098.000000)" fill="#8C8C8C">
            <g id="编组" transform="translate(618.666667, 1098.666667)">
                <path d="M33.2193732,17.5726741 L1.82248521,17.5726741 C0.816421945,17.5726741 0,16.7512793 0,15.7390881 C0,14.7268969 0.816421945,13.9055021 1.82248521,13.9055021 L33.216159,13.9055021 C36.0189934,13.9055021 38.2979034,11.6094773 38.2979034,8.78633704 C38.2979034,5.96319672 36.0189934,3.66717195 33.2193732,3.66717195 C31.0851048,3.66717195 29.1629776,5.02538379 28.4333406,7.04329851 C28.0894149,7.99728064 27.0447805,8.48559013 26.0997882,8.1395695 C25.1515816,7.7967827 24.6630141,6.74578545 25.0069399,5.79180332 C26.2572869,2.32836315 29.5583315,0 33.2193732,0 C38.0279056,0 41.9396596,3.94204816 41.9396596,8.78633704 C41.9396596,13.6306259 38.0279056,17.5726741 33.2193732,17.5726741" id="Fill-1"></path>
                <path d="M19.4112353,58.6666667 C15.6376945,58.6666667 12.3077215,56.2412884 11.124874,52.6323255 C10.8098765,51.6686419 11.3305866,50.6338138 12.2852217,50.3168977 C13.2462853,49.9967478 14.2716342,50.5238633 14.5866316,51.4843131 C15.2744832,53.5863076 17.2126817,54.9994947 19.4112353,54.9994947 C22.2140697,54.9994947 24.4929798,52.7067038 24.4929798,49.8867973 C24.4929798,47.0604232 22.2140697,44.7643984 19.4112353,44.7643984 L3.07315363,44.7643984 C2.06709036,44.7643984 1.25388268,43.9430036 1.25388268,42.9308124 C1.25388268,41.9186212 2.06709036,41.0972264 3.07315363,41.0972264 L19.4112353,41.0972264 C24.222982,41.0972264 28.1379502,45.0392746 28.1379502,49.8867973 C28.1379502,54.7278523 24.222982,58.6666667 19.4112353,58.6666667" id="Fill-3"></path>
                <path d="M45.3403463,54.3368814 C37.982906,54.3368814 31.9979546,48.3219432 31.9979546,40.9261564 C31.9979546,39.9139652 32.8143765,39.0925704 33.8204398,39.0925704 C34.826503,39.0925704 35.642925,39.9139652 35.642925,40.9261564 C35.642925,46.3007947 39.9918182,50.6697094 45.3403463,50.6697094 C50.6792315,50.6697094 55.0249105,46.3007947 55.0249105,40.9261564 C55.0249105,35.5450505 50.6792315,31.1696681 45.3403463,31.1696681 L7.50851048,31.1696681 C6.50244722,31.1696681 5.68602528,30.3515071 5.68602528,29.3393159 C5.68602528,28.3271247 6.50244722,27.50573 7.50851048,27.50573 L45.337132,27.50573 C52.6881438,27.50573 58.6666667,33.5239019 58.6666667,40.9261564 C58.6666667,48.3219432 52.691358,54.3368814 45.3403463,54.3368814" id="Fill-5"></path>
            </g>
        </g>
    </g>
</svg>