<?xml version="1.0" encoding="UTF-8"?>
<svg width="80px" height="80px" viewBox="0 0 80 80" version="1.1" xmlns="http://www.w3.org/2000/svg" xmlns:xlink="http://www.w3.org/1999/xlink">
    <title>失败</title>
    <g id="页面-1" stroke="none" stroke-width="1" fill="none" fill-rule="evenodd">
        <g id="水泵检测-选择内机（刷新）" transform="translate(-320.000000, -288.000000)">
            <g id="失败" transform="translate(320.000000, 288.000000)">
                <g id="Group-8">
                    <rect id="Rectangle" x="0" y="0" width="80" height="80"></rect>
                </g>
                <g id="编组" fill="#1C6CEC" fill-rule="nonzero">
                    <path d="M40,0 C38.9014695,0 37.9956637,0.896277557 37.9956637,2.00457776 L37.9956637,18.0026503 C37.9956637,19.1013131 38.8918333,20.007228 40,20.007228 C41.1081667,20.007228 42.0043363,19.1109505 42.0043363,18.0026503 L42.0043363,2.00457776 C42.0043363,0.896277557 41.0985305,0 40,0 L40,0 Z M14.5507107,11.71907 C13.7701759,10.9384412 12.4981932,10.9384412 11.7272946,11.71907 C10.956396,12.4996988 10.9467598,13.7718347 11.7272946,14.5428262 L23.0402313,25.8571256 C23.8207661,26.6377545 25.0927487,26.6377545 25.8636473,25.8571256 C26.6345459,25.0764968 26.6441821,23.8043609 25.8636473,23.0333695 L14.5507107,11.71907 Z M20.0048181,39.9951813 C20.0048181,38.8965185 19.1086485,37.9906035 18.0004818,37.9906035 L2.0043363,37.9906035 C0.90580583,37.9906035 0,38.8868811 0,39.9951813 C0,41.1034815 0.896169598,41.9997591 2.0043363,41.9997591 L18.0004818,41.9997591 C19.1086485,41.9997591 20.0048181,41.0938441 20.0048181,39.9951813 L20.0048181,39.9951813 Z M23.030595,54.133237 L11.7272946,65.4475364 C10.9467598,66.2281653 10.9467598,67.5003012 11.7272946,68.2712926 C12.5078294,69.0519215 13.7798121,69.0519215 14.5507107,68.2712926 L25.8636473,56.9569931 C26.6441821,56.1763643 26.6441821,54.9042284 25.8636473,54.133237 C25.0831125,53.3622455 23.8111298,53.3622455 23.030595,54.133237 L23.030595,54.133237 Z M40,59.992772 C38.9014695,59.992772 37.9956637,60.8890495 37.9956637,61.9973497 L37.9956637,77.9954222 C37.9956637,79.094085 38.8918333,80 40,80 C41.1081667,80 42.0043363,79.1037224 42.0043363,77.9954222 L42.0043363,61.9973497 C42.0043363,60.8890495 41.0985305,59.992772 40,59.992772 L40,59.992772 Z M56.969405,54.133237 C56.1888702,53.3526081 54.9168875,53.3526081 54.1459889,54.133237 C53.3750903,54.9138658 53.3654541,56.1860017 54.1459889,56.9569931 L65.4589256,68.2712926 C66.2394604,69.0519215 67.511443,69.0519215 68.2823416,68.2712926 C69.0628764,67.4906638 69.0628764,66.2185279 68.2823416,65.4475364 L56.969405,54.133237 Z M77.9956637,38.0002409 L61.9995182,38.0002409 C60.9009877,38.0002409 59.9951819,38.8965185 59.9951819,40.0048187 C59.9951819,41.1131189 60.8913515,42.0093965 61.9995182,42.0093965 L77.9956637,42.0093965 C79.0941942,42.0093965 80,41.1131189 80,40.0048187 C80,38.8965185 79.0941942,38.0002409 77.9956637,38.0002409 Z M56.969405,25.8571256 L68.2823416,14.5428262 C69.0628764,13.7621973 69.0628764,12.4900614 68.2823416,11.71907 C67.5018068,10.9480785 66.2298241,10.9384412 65.4589256,11.71907 L54.1363527,23.0237321 C53.3558179,23.8043609 53.3558179,25.0764968 54.1363527,25.8474883 C54.9168875,26.6184797 56.1888702,26.6281171 56.969405,25.8571256 Z" id="形状"></path>
                </g>
            </g>
        </g>
    </g>
</svg>