<?xml version="1.0" encoding="UTF-8"?>
<svg width="24px" height="24px" viewBox="0 0 24 24" version="1.1" xmlns="http://www.w3.org/2000/svg" xmlns:xlink="http://www.w3.org/1999/xlink">
    <title>未固定</title>
    <g id="页面-1" stroke="none" stroke-width="1" fill="none" fill-rule="evenodd">
        <g id="水泵检测-查看详情" transform="translate(-346.000000, -164.000000)" fill="#1C6CEC" fill-rule="nonzero">
            <g id="编组-2" transform="translate(0.000000, 152.000000)">
                <g id="编组-10" transform="translate(310.000000, 8.000000)">
                    <g id="编组-16" transform="translate(32.000000, 0.000000)">
                        <path d="M28,11.8457468 C28,11.1198608 27.717425,10.4377339 27.2040422,9.92463713 L22.0742188,4.79452773 C21.0148485,3.73515742 19.2910837,3.73515742 18.2317134,4.79452773 L10.9362443,12.0902829 L8.85582859,11.2196773 C7.83449722,10.7923827 6.66844627,11.0220464 5.88564483,11.8048478 L4.79452773,12.8959649 C3.73515742,13.9553352 3.73515742,15.6791 4.79452773,16.7384703 L9.3194461,21.2633887 L4.90063637,25.6824844 C4.50966466,26.0734562 4.50966466,26.7072479 4.90063637,27.0982196 C5.09597922,27.2935625 5.35224158,27.3913769 5.60850394,27.3913769 C5.86476631,27.3913769 6.12102867,27.2935625 6.31637152,27.0982196 L10.7351813,22.6791239 L15.2600996,27.2040422 C15.7731964,27.717139 16.4556093,28 17.1814953,28 C17.9073814,28 18.5895083,27.717425 19.102605,27.2040422 L20.1937221,26.1129251 C20.9765236,25.3301237 21.2061873,24.1640727 20.7788927,23.1427414 L19.9082871,21.0623257 L27.2040422,13.7665705 C27.717425,13.2537598 28,12.5713469 28,11.8457468 Z M25.7883071,12.3511214 L18.2892008,19.8502276 C17.8358796,20.3035489 17.7028863,20.9785256 17.9502824,21.5697023 L18.9318588,23.9155326 C19.0442596,24.1843792 18.9839121,24.4912649 18.777987,24.69719 L17.6868699,25.7883071 C17.5518745,25.9233024 17.3722621,25.9976643 17.1812093,25.9976643 C16.9901566,25.9976643 16.8105441,25.9233024 16.6755488,25.7883071 L6.21026289,15.3227352 C5.93140596,15.0438783 5.93140596,14.590271 6.21026289,14.3114141 L7.30137998,13.220297 C7.43866339,13.0830136 7.62056391,13.0103678 7.80618252,13.0103678 C7.89913483,13.0103678 7.99323117,13.0286722 8.0830374,13.0661391 L10.4288677,14.0477155 C11.0203303,14.2951117 11.6953071,14.1621184 12.1483424,13.7087971 L19.6474486,6.20969087 C19.9263055,5.93083395 20.3799128,5.93083395 20.6587697,6.20969087 L25.7885931,11.3395143 C26.067164,11.6189432 26.067164,12.0725505 25.7883071,12.3511214 Z" id="形状"></path>
                    </g>
                </g>
            </g>
        </g>
    </g>
</svg>