<?xml version="1.0" encoding="UTF-8"?>
<svg width="156px" height="200px" viewBox="0 0 156 200" version="1.1" xmlns="http://www.w3.org/2000/svg" xmlns:xlink="http://www.w3.org/1999/xlink">
    <title>编组 2@3x</title>
    <g id="页面-1" stroke="none" stroke-width="1" fill="none" fill-rule="evenodd">
        <g id="故障智能解析-设备当前状态备份-21" transform="translate(-64.000000, -296.000000)">
            <g id="MDV" transform="translate(64.000000, 296.000000)">
                <rect id="矩形" fill="#E8E8E8" x="1.7593985" y="0" width="154.240602" height="200" rx="4"></rect>
                <rect id="矩形备份" fill="#D6D6D6" x="1.7593985" y="3.50877193" width="37.5338346" height="196.491228" rx="4"></rect>
                <rect id="矩形备份-2" fill="#E2E2E2" x="114.947368" y="3.50877193" width="40.4661654" height="192.982456" rx="4"></rect>
                <rect id="矩形备份-3" fill="#AFAFAF" x="1.7593985" y="193.567251" width="153.654135" height="6.43274854" rx="3.21637427"></rect>
                <rect id="矩形备份-4" fill="#AFAFAF" x="1.7593985" y="0" width="153.654135" height="3.50877193" rx="1.75438596"></rect>
                <polygon id="路径-6" fill="#BBBBBB" points="1.7593985 46.8743698 46.9172932 44.1520468 110.255639 44.1520468 156 46.8743698 110.255639 49.4152047 46.9172932 49.4152047"></polygon>
                <polygon id="路径-6备份" fill="#BBBBBB" points="1.17293233 98.9211535 46.3308271 96.1988304 109.669173 96.1988304 155.413534 98.9211535 109.669173 101.461988 46.3308271 101.461988"></polygon>
                <polygon id="路径-6备份-2" fill="#BBBBBB" points="0 155.061504 45.1578947 152.339181 108.496241 152.339181 154.240602 155.061504 108.496241 157.602339 45.1578947 157.602339"></polygon>
                <path d="M78.2885604,9.35814182 L77.2533284,9.37266276 L76.4747112,9.36912107 L73.3490929,13.6940582 L70.3494058,9.38523577 L70.1141757,9.37266276 L69.8670652,9.37230859 L69.8453151,9.38629827 L66.8571429,9.38629827 L66.8571429,21.0526316 L70.048377,21.0526316 L70.048377,14.4822617 L71.4760248,16.5330785 L71.5123968,16.5924018 L71.7452509,16.92355 L71.7505514,16.9272688 L73.2222477,19.0409505 L73.979846,18.0586623 L74.8348628,16.9869463 L75.1362571,16.611704 L75.154169,16.5867351 L75.2658439,16.4470154 L75.2605434,16.4395778 L79.6908026,10.3094403 L80.3458647,9.35672515 L78.2885604,9.35814182 Z M86.3634705,19.3063432 L85.2028991,16.0305276 C85.1839778,17.646335 84.4427695,19.0934718 83.2781955,20.0810962 L83.2781955,20.0810962 L83.6226008,21.0526316 L86.9574924,21.0374265 L88.223041,21.0377801 L89.1094344,21.0383105 L93.2481203,9.35813957 L90.3189466,9.35813957 L89.8888493,9.35672515 L86.3634705,19.3063432 Z M79.5902395,13.0309922 C80.6277923,14.5105478 80.6995379,15.805159 79.8054765,16.9148258 L79.8054765,16.9148258 C78.4643843,18.5793259 75.9477669,18.1354592 75.9477669,18.1354592 L75.9477669,18.1354592 C75.9477669,18.1354592 75.2634235,19.0601815 73.8947368,20.909626 L73.8947368,20.909626 C74.7661708,21.004388 75.4501462,21.0519452 75.9466631,21.0522975 L75.9466631,21.0522975 C76.6966813,21.0528259 77.5285632,21.0633941 78.3816008,20.909626 L78.3816008,20.909626 C80.9313316,20.449907 82.5538876,19.3085354 83.4645058,17.2794305 L83.4645058,17.2794305 C83.8649938,16.3867653 83.9426263,15.0859893 83.7956397,14.1565113 L83.7956397,14.1565113 C83.6083651,12.9730429 83.0991547,12.1749635 83.0991547,12.1749635 L83.0991547,12.1749635 C83.0991547,12.1749635 83.0662253,12.0867186 82.9667012,11.9688826 L82.9667012,11.9688826 C82.6239776,11.5634139 81.7985345,10.6614133 81.4777025,10.5263158 L81.4777025,10.5263158 C81.4666647,10.536884 80.8375104,11.3717762 79.5902395,13.0309922 L79.5902395,13.0309922 Z" id="Clip-2" fill="#0092D8"></path>
                <g id="V8" transform="translate(70.962406, 23.976608)" fill="#000000" fill-opacity="0.5" fill-rule="nonzero">
                    <polygon id="路径" points="2.39908301 0 0 0 2.8014137 5.84795322 5.61027796 5.84795322 8.21052632 0 6.01260865 0 4.26172509 4.07941898"></polygon>
                    <path d="M15.6955459,1.5811413 L15.6955459,1.51305387 C15.6955459,0.938093401 15.4329136,0 12.1963572,0 L11.8564801,0 C8.61219919,0 8.34184245,0.938093401 8.34184245,1.51305387 L8.34184245,1.5811413 C8.34184245,2.26958081 8.99069863,2.66297482 9.63183034,2.76132332 C8.92117833,2.8899329 8.21052632,3.32115325 8.21052632,4.03985384 L8.21052632,4.1230718 C8.21052632,4.80394604 8.51950545,5.84795322 11.8564801,5.84795322 L12.1886327,5.84795322 C15.4792605,5.84795322 15.8345865,4.80394604 15.8345865,4.1230718 L15.8345865,4.03985384 C15.8345865,3.30602271 15.1393834,2.87480236 14.4132824,2.76132332 C15.0312407,2.67810535 15.6955459,2.26958081 15.6955459,1.5811413 Z M13.4168247,1.69462034 L13.4168247,1.71731615 C13.4168247,1.92914369 13.2855086,2.18636285 12.0186942,2.18636285 C10.7518797,2.18636285 10.6205636,1.92914369 10.6205636,1.71731615 L10.6205636,1.69462034 C10.6205636,1.49035806 10.7209818,1.24070418 12.0186942,1.24070418 C13.2932331,1.24070418 13.4168247,1.49035806 13.4168247,1.69462034 Z M13.5713143,3.96420115 L13.5713143,3.98689695 C13.5713143,4.21385503 13.3936513,4.50890054 12.0186942,4.50890054 C10.6514615,4.50890054 10.4737985,4.21385503 10.4737985,3.98689695 L10.4737985,3.96420115 C10.4737985,3.71454726 10.6360125,3.46489337 12.0186942,3.46489337 C13.3936513,3.46489337 13.5713143,3.71454726 13.5713143,3.96420115 Z" id="形状"></path>
                </g>
            </g>
        </g>
    </g>
</svg>