<?xml version="1.0" encoding="UTF-8"?>
<svg width="23px" height="20px" viewBox="0 0 23 20" version="1.1" xmlns="http://www.w3.org/2000/svg" xmlns:xlink="http://www.w3.org/1999/xlink">
    <title>编组</title>
    <defs>
        <polygon id="path-1" points="0 0 22.4098 0 22.4098 1.134 0 1.134"></polygon>
    </defs>
    <g id="页面-1" stroke="none" stroke-width="1" fill="none" fill-rule="evenodd">
        <g id="故障智能解析-历史故障备份-24" transform="translate(-192.000000, -307.000000)">
            <g id="编组-6备份-3" transform="translate(32.000000, 209.000000)">
                <g id="编组-7" transform="translate(160.000000, 91.000000)">
                    <g id="编组" transform="translate(0.000000, 7.000000)">
                        <g transform="translate(0.000000, 9.201798)">
                            <mask id="mask-2" fill="white">
                                <use xlink:href="#path-1"></use>
                            </mask>
                            <g id="Clip-2"></g>
                            <path d="M21.8428,1.134 L0.5668,1.134 C0.2538,1.134 -0.0002,0.88 -0.0002,0.567 C-0.0002,0.254 0.2538,0 0.5668,0 L21.8428,0 C22.1558,0 22.4098,0.254 22.4098,0.567 C22.4098,0.88 22.1558,1.134 21.8428,1.134" id="Fill-1" fill="#999999" mask="url(#mask-2)"></path>
                        </g>
                        <path d="M2.6929,13.1740981 C2.5479,13.1740981 2.4029,13.1190981 2.2929,13.0080981 C2.0709,12.7870981 2.0699,12.4280981 2.2919,12.2070981 L4.7269,9.76809814 L2.2919,7.33109814 C2.0699,7.11009814 2.0709,6.75109814 2.2919,6.52909814 C2.5139,6.30809814 2.8729,6.30809814 3.0939,6.52909814 L5.9289,9.36709814 C6.1509,9.58909814 6.1509,9.94709814 5.9299,10.1680981 L3.0939,13.0070981 C2.9839,13.1180981 2.8379,13.1740981 2.6929,13.1740981" id="Fill-3" fill="#999999"></path>
                        <path d="M19.5425,13.1721981 C19.3975,13.1721981 19.2525,13.1171981 19.1415,13.0061981 L16.3055,10.1711981 C16.1985,10.0641981 16.1395,9.92019814 16.1395,9.77019814 C16.1395,9.61919814 16.1985,9.47519814 16.3055,9.36919814 L19.1415,6.53119814 C19.3635,6.31019814 19.7215,6.31019814 19.9435,6.53119814 C20.1645,6.75319814 20.1645,7.11119814 19.9435,7.33319814 L17.5075,9.77019814 L19.9435,12.2041981 C20.1645,12.4251981 20.1645,12.7841981 19.9435,13.0061981 C19.8325,13.1171981 19.6875,13.1721981 19.5425,13.1721981" id="Fill-5" fill="#999999"></path>
                        <path d="M5.8916,19.5588981 C5.7956,19.5588981 5.6976,19.5348981 5.6086,19.4828981 C5.3376,19.3268981 5.2446,18.9798981 5.4006,18.7078981 L16.0386,0.282898145 C16.1966,0.0128981446 16.5416,-0.0801018554 16.8136,0.0758981446 C17.0846,0.231898145 17.1776,0.578898145 17.0206,0.850898145 L6.3836,19.2758981 C6.2776,19.4568981 6.0876,19.5588981 5.8916,19.5588981" id="Fill-7" fill="#999999"></path>
                        <path d="M9.4126,19.1369981 C9.1626,19.1369981 8.9336,18.9699981 8.8656,18.7169981 L7.9716,15.3889981 L4.6436,16.2799981 C4.3426,16.3559981 4.0306,16.1809981 3.9496,15.8779981 C3.8686,15.5759981 4.0476,15.2649981 4.3506,15.1839981 L8.2256,14.1469981 C8.5236,14.0699981 8.8386,14.2439981 8.9196,14.5479981 L9.9606,18.4229981 C10.0416,18.7249981 9.8626,19.0359981 9.5596,19.1169981 C9.5106,19.1309981 9.4616,19.1369981 9.4126,19.1369981" id="Fill-9" fill="#999999"></path>
                        <path d="M13.9619,5.58229814 C13.7119,5.58229814 13.4829,5.41529814 13.4149,5.16229814 L12.3759,1.28729814 C12.2949,0.984298145 12.4739,0.674298145 12.7759,0.593298145 C13.0779,0.512298145 13.3899,0.691298145 13.4709,0.993298145 L14.3629,4.32129814 L17.6899,3.42929814 C17.9909,3.34829814 18.3029,3.52729814 18.3839,3.83029814 C18.4649,4.13229814 18.2859,4.44329814 17.9829,4.52429814 L14.1089,5.56229814 C14.0599,5.57629814 14.0109,5.58229814 13.9619,5.58229814" id="Fill-11" fill="#999999"></path>
                        <path d="M16.5425,19.5588981 C16.3465,19.5588981 16.1565,19.4568981 16.0505,19.2758981 L5.4135,0.850898145 C5.2565,0.578898145 5.3495,0.231898145 5.6205,0.0758981446 C5.8915,-0.0801018554 6.2375,0.0118981446 6.3955,0.282898145 L17.0335,18.7078981 C17.1895,18.9798981 17.0965,19.3268981 16.8255,19.4828981 C16.7365,19.5348981 16.6385,19.5588981 16.5425,19.5588981" id="Fill-13" fill="#999999"></path>
                        <path d="M13.0215,19.1369981 C12.9725,19.1369981 12.9235,19.1309981 12.8745,19.1169981 C12.5715,19.0359981 12.3925,18.7249981 12.4735,18.4229981 L13.5135,14.5489981 C13.5945,14.2459981 13.9035,14.0679981 14.2075,14.1479981 L18.0835,15.1839981 C18.3855,15.2649981 18.5655,15.5749981 18.4845,15.8779981 C18.4035,16.1809981 18.0935,16.3589981 17.7905,16.2799981 L14.4615,15.3889981 L13.5685,18.7169981 C13.5005,18.9699981 13.2715,19.1369981 13.0215,19.1369981" id="Fill-15" fill="#999999"></path>
                        <path d="M8.4736,5.58139814 C8.4246,5.58139814 8.3756,5.57539814 8.3266,5.56239814 L4.4516,4.52439814 C4.1486,4.44339814 3.9696,4.13239814 4.0496,3.83039814 C4.1306,3.52739814 4.4456,3.34839814 4.7446,3.42939814 L8.0726,4.32039814 L8.9626,0.994398145 C9.0436,0.691398145 9.3586,0.516398145 9.6576,0.592398145 C9.9596,0.673398145 10.1396,0.984398145 10.0586,1.28739814 L9.0206,5.16139814 C8.9526,5.41439814 8.7236,5.58139814 8.4736,5.58139814" id="Fill-17" fill="#999999"></path>
                    </g>
                </g>
            </g>
        </g>
    </g>
</svg>