<?xml version="1.0" encoding="UTF-8"?>
<svg width="302px" height="321px" viewBox="0 0 302 321" version="1.1" xmlns="http://www.w3.org/2000/svg" xmlns:xlink="http://www.w3.org/1999/xlink">
    <title>1.Base基础组件 / 3.icon/警示</title>
    <defs>
        <linearGradient x1="31.7625967%" y1="24.4427005%" x2="65.2197983%" y2="71.0970821%" id="linearGradient-1">
            <stop stop-color="#82E860" offset="0%"></stop>
            <stop stop-color="#5DDD4D" offset="100%"></stop>
        </linearGradient>
        <path d="M149.5,42 C208.870611,42 257,90.1293894 257,149.5 C257,208.870611 208.870611,257 149.5,257 C90.1293894,257 42,208.870611 42,149.5 C42,90.1293894 90.1293894,42 149.5,42 Z M207.465931,112.516657 C203.96306,109.02264 198.290961,109.029819 194.796945,112.53269 L137.027014,170.447569 L108.821767,143.155395 L108.385225,142.759503 C104.816096,139.727988 99.4572817,139.950528 96.1544856,143.36384 C92.714073,146.919374 92.8073972,152.590709 96.362931,156.031122 L130.90982,189.45945 L131.341625,189.8513 C134.871639,192.853538 140.16346,192.67476 143.481748,189.348062 L207.481965,125.185643 L207.884442,124.755164 C210.969814,121.232489 210.828688,115.870912 207.465931,112.516657 Z" id="path-2"></path>
        <linearGradient x1="31.7625967%" y1="20.3595865%" x2="65.2197983%" y2="74.4676179%" id="linearGradient-4">
            <stop stop-color="#82E860" offset="0%"></stop>
            <stop stop-color="#5DDD4D" offset="100%"></stop>
        </linearGradient>
    </defs>
    <g id="页面-1" stroke="none" stroke-width="1" fill="none" fill-rule="evenodd">
        <g id="室外机模块板-更换模块板流程完成" transform="translate(-210.000000, -422.000000)">
            <g id="1.Base基础组件-/-3.icon/警示" transform="translate(210.000000, 422.000000)">
                <rect id="矩形" x="0" y="0" width="302" height="302"></rect>
                <path d="M216.872648,10.016296 C220.501615,10.2640238 223.273692,13.2731513 223.281507,16.8504499 L223.263614,17.3651209 L221.785342,38.0018899 C221.513199,41.8010142 218.210636,44.670435 214.40886,44.4109303 C210.779893,44.1632024 208.007816,41.1540749 208,37.5767763 L208.017894,37.0621054 L209.496166,16.4253364 C209.768308,12.6262121 213.070871,9.75679129 216.872648,10.016296 Z M258.436108,31.016656 C261.233102,28.4116154 265.601122,28.5500096 268.192353,31.3257681 C270.654022,33.9627387 270.626564,38.0312918 268.219591,40.6650514 L267.819784,41.0685668 L252.626563,55.2190968 C249.829569,57.8241374 245.461549,57.6857432 242.870318,54.9099847 C240.408649,52.2730141 240.436107,48.204461 242.84308,45.5707014 L243.242887,45.167186 L258.436108,31.016656 Z M284.257796,71.7381204 C288.040448,71.2739931 291.483406,73.9620504 291.947857,77.7420645 C292.391197,81.3502597 289.960397,84.6491558 286.448572,85.345271 L285.939723,85.4267624 L265.39243,87.9478932 C261.609777,88.4120206 258.16682,85.7239633 257.702368,81.9439492 C257.259029,78.3357539 259.689828,75.0368579 263.201653,74.3407427 L263.710503,74.2592513 L284.257796,71.7381204 Z" id="形状结合" fill="url(#linearGradient-1)"></path>
                <ellipse id="椭圆形" fill="#F5F0EF" fill-rule="nonzero" cx="149.5" cy="311.5" rx="65.5" ry="9.5"></ellipse>
                <mask id="mask-3" fill="white">
                    <use xlink:href="#path-2"></use>
                </mask>
                <use id="形状结合" fill="#FFFFFF" fill-rule="nonzero" xlink:href="#path-2"></use>
                <rect id="矩形" fill="url(#linearGradient-4)" mask="url(#mask-3)" x="0" y="0" width="302" height="302"></rect>
            </g>
        </g>
    </g>
</svg>